<svg width="926" height="138" viewBox="0 0 926 138" fill="none" xmlns="http://www.w3.org/2000/svg">
<rect width="926" height="138" fill="#FAFAFA"/>
<path d="M90.0179 32C92.4286 32 94.7054 32.6504 96.8482 33.9512C98.9911 35.252 100.732 37.122 102.071 39.561C103.357 42 104 44.8726 104 48.1789C104 51.4851 103.196 54.71 101.589 57.8537C101.054 58.9919 100.089 60.4553 98.6964 62.2439C97.25 64.0325 95.9107 65.5772 94.6786 66.878L89.6161 72L86 65.9837C88.5179 64.4119 90.7411 62.4607 92.6696 60.1301C94.5982 57.8537 95.5625 55.7669 95.5625 53.8699C95.5625 52.8943 95.3482 52.1084 94.9196 51.5122C93.0446 52.8672 90.9554 53.5447 88.6518 53.5447C86.9911 53.5447 85.4107 53.0298 83.9107 52C82.3571 51.0244 81.125 49.7236 80.2143 48.0976C79.25 46.5257 78.7679 44.8997 78.7679 43.2195C78.7679 41.3225 79.3304 39.5068 80.4554 37.7724C81.5268 36.0379 82.9464 34.6287 84.7143 33.5447C86.4286 32.5149 88.1964 32 90.0179 32ZM61.1696 32C63.5804 32 65.8571 32.6504 68 33.9512C70.1429 35.252 71.8839 37.122 73.2232 39.561C74.5089 42 75.1518 44.8726 75.1518 48.1789C75.1518 50.5095 74.8571 52.5962 74.2679 54.439C73.6786 56.336 72.6607 58.3144 71.2143 60.374C69.8214 62.3252 68.5089 63.9512 67.2768 65.252C66.0446 66.607 63.9018 68.8564 60.8482 72L57.2321 65.9837C59.75 64.4119 61.9732 62.4607 63.9018 60.1301C65.8304 57.8537 66.7946 55.7669 66.7946 53.8699C66.7946 52.8943 66.5804 52.1084 66.1518 51.5122C64.2768 52.8672 62.1875 53.5447 59.8839 53.5447C58.2232 53.5447 56.6429 53.0298 55.1429 52C53.5893 51.0244 52.3571 49.7236 51.4464 48.0976C50.4821 46.5257 50 44.8997 50 43.2195C50 41.3225 50.5357 39.5068 51.6071 37.7724C52.6786 36.0379 54.0982 34.6287 55.8661 33.5447C57.5804 32.5149 59.3482 32 61.1696 32Z" fill="#E1E1E1"/>
<path d="M98.5938 67V55.8H100.29L105.906 64.232V55.8H107.602V67H105.906L100.29 58.568V67H98.5938ZM117.747 59.064V67H116.243L116.115 65.608C115.87 66.0987 115.507 66.488 115.027 66.776C114.558 67.0533 114.014 67.192 113.395 67.192C112.435 67.192 111.678 66.8933 111.123 66.296C110.579 65.6987 110.307 64.808 110.307 63.624V59.064H111.987V63.448C111.987 64.984 112.616 65.752 113.875 65.752C114.504 65.752 115.022 65.528 115.427 65.08C115.843 64.632 116.051 63.992 116.051 63.16V59.064H117.747ZM120.529 67V55.48H122.225V67H120.529ZM125.012 67V55.48H126.708V67H125.012ZM132.184 67.192C131.512 67.192 130.957 67.08 130.52 66.856C130.083 66.632 129.757 66.3387 129.544 65.976C129.331 65.6027 129.224 65.1973 129.224 64.76C129.224 63.992 129.523 63.384 130.12 62.936C130.717 62.488 131.571 62.264 132.68 62.264H134.76V62.12C134.76 61.5013 134.589 61.0373 134.248 60.728C133.917 60.4187 133.485 60.264 132.952 60.264C132.483 60.264 132.072 60.3813 131.72 60.616C131.379 60.84 131.171 61.176 131.096 61.624H129.4C129.453 61.048 129.645 60.5573 129.976 60.152C130.317 59.736 130.744 59.4213 131.256 59.208C131.779 58.984 132.349 58.872 132.968 58.872C134.077 58.872 134.936 59.1653 135.544 59.752C136.152 60.328 136.456 61.1173 136.456 62.12V67H134.984L134.84 65.64C134.616 66.0773 134.291 66.4453 133.864 66.744C133.437 67.0427 132.877 67.192 132.184 67.192ZM132.52 65.816C132.979 65.816 133.363 65.7093 133.672 65.496C133.992 65.272 134.237 64.9787 134.408 64.616C134.589 64.2533 134.701 63.8533 134.744 63.416H132.856C132.184 63.416 131.704 63.5333 131.416 63.768C131.139 64.0027 131 64.296 131 64.648C131 65.0107 131.133 65.2987 131.4 65.512C131.677 65.7147 132.051 65.816 132.52 65.816ZM139.074 67V59.064H140.578L140.722 60.184C140.978 59.7787 141.314 59.4587 141.73 59.224C142.156 58.9893 142.647 58.872 143.202 58.872C144.46 58.872 145.335 59.368 145.826 60.36C146.114 59.9013 146.498 59.5387 146.978 59.272C147.468 59.0053 147.996 58.872 148.562 58.872C149.554 58.872 150.332 59.1707 150.898 59.768C151.463 60.3653 151.746 61.256 151.746 62.44V67H150.05V62.616C150.05 61.08 149.463 60.312 148.29 60.312C147.692 60.312 147.202 60.536 146.818 60.984C146.444 61.432 146.258 62.072 146.258 62.904V67H144.562V62.616C144.562 61.08 143.97 60.312 142.786 60.312C142.199 60.312 141.714 60.536 141.33 60.984C140.956 61.432 140.77 62.072 140.77 62.904V67H139.074ZM161.265 67L158.289 59.064H160.065L162.273 65.384L164.481 59.064H166.241L163.281 67H161.265ZM169.235 57.56C168.915 57.56 168.648 57.464 168.435 57.272C168.232 57.0693 168.131 56.8187 168.131 56.52C168.131 56.2213 168.232 55.976 168.435 55.784C168.648 55.5813 168.915 55.48 169.235 55.48C169.555 55.48 169.816 55.5813 170.019 55.784C170.232 55.976 170.339 56.2213 170.339 56.52C170.339 56.8187 170.232 57.0693 170.019 57.272C169.816 57.464 169.555 57.56 169.235 57.56ZM168.387 67V59.064H170.083V67H168.387ZM175.186 67L172.21 59.064H173.986L176.194 65.384L178.402 59.064H180.162L177.202 67H175.186ZM185.501 67.192C184.723 67.192 184.029 67.0213 183.421 66.68C182.824 66.328 182.355 65.8427 182.013 65.224C181.672 64.6053 181.501 63.8853 181.501 63.064C181.501 62.232 181.667 61.5013 181.997 60.872C182.339 60.2427 182.808 59.752 183.405 59.4C184.013 59.048 184.717 58.872 185.517 58.872C186.296 58.872 186.973 59.048 187.549 59.4C188.125 59.7413 188.573 60.2 188.893 60.776C189.213 61.352 189.373 61.9867 189.373 62.68C189.373 62.7867 189.368 62.904 189.357 63.032C189.357 63.1493 189.352 63.2827 189.341 63.432H183.165C183.219 64.2 183.469 64.7867 183.917 65.192C184.376 65.5867 184.904 65.784 185.501 65.784C185.981 65.784 186.381 65.6773 186.701 65.464C187.032 65.24 187.277 64.9413 187.437 64.568H189.133C188.92 65.3147 188.493 65.9387 187.853 66.44C187.224 66.9413 186.44 67.192 185.501 67.192ZM185.501 60.264C184.936 60.264 184.435 60.4347 183.997 60.776C183.56 61.1067 183.293 61.608 183.197 62.28H187.677C187.645 61.6613 187.427 61.1707 187.021 60.808C186.616 60.4453 186.109 60.264 185.501 60.264ZM191.773 67V59.064H193.293L193.437 60.568C193.714 60.0453 194.098 59.6347 194.589 59.336C195.09 59.0267 195.693 58.872 196.397 58.872V60.648H195.933C195.464 60.648 195.042 60.728 194.669 60.888C194.306 61.0373 194.013 61.2987 193.789 61.672C193.576 62.0347 193.469 62.5413 193.469 63.192V67H191.773ZM198.491 67V59.064H200.011L200.155 60.568C200.432 60.0453 200.816 59.6347 201.307 59.336C201.808 59.0267 202.411 58.872 203.115 58.872V60.648H202.651C202.182 60.648 201.76 60.728 201.387 60.888C201.024 61.0373 200.731 61.2987 200.507 61.672C200.294 62.0347 200.187 62.5413 200.187 63.192V67H198.491ZM207.897 67.192C207.225 67.192 206.671 67.08 206.233 66.856C205.796 66.632 205.471 66.3387 205.257 65.976C205.044 65.6027 204.937 65.1973 204.937 64.76C204.937 63.992 205.236 63.384 205.833 62.936C206.431 62.488 207.284 62.264 208.393 62.264H210.473V62.12C210.473 61.5013 210.303 61.0373 209.961 60.728C209.631 60.4187 209.199 60.264 208.665 60.264C208.196 60.264 207.785 60.3813 207.433 60.616C207.092 60.84 206.884 61.176 206.809 61.624H205.113C205.167 61.048 205.359 60.5573 205.689 60.152C206.031 59.736 206.457 59.4213 206.969 59.208C207.492 58.984 208.063 58.872 208.681 58.872C209.791 58.872 210.649 59.1653 211.257 59.752C211.865 60.328 212.169 61.1173 212.169 62.12V67H210.697L210.553 65.64C210.329 66.0773 210.004 66.4453 209.577 66.744C209.151 67.0427 208.591 67.192 207.897 67.192ZM208.233 65.816C208.692 65.816 209.076 65.7093 209.385 65.496C209.705 65.272 209.951 64.9787 210.121 64.616C210.303 64.2533 210.415 63.8533 210.457 63.416H208.569C207.897 63.416 207.417 63.5333 207.129 63.768C206.852 64.0027 206.713 64.296 206.713 64.648C206.713 65.0107 206.847 65.2987 207.113 65.512C207.391 65.7147 207.764 65.816 208.233 65.816ZM223.218 67.192C222.439 67.192 221.741 67.016 221.122 66.664C220.514 66.312 220.034 65.8267 219.682 65.208C219.341 64.5787 219.17 63.8533 219.17 63.032C219.17 62.2107 219.341 61.4907 219.682 60.872C220.034 60.2427 220.514 59.752 221.122 59.4C221.741 59.048 222.439 58.872 223.218 58.872C224.199 58.872 225.021 59.128 225.682 59.64C226.354 60.152 226.786 60.8453 226.978 61.72H225.202C225.095 61.2827 224.861 60.9413 224.498 60.696C224.135 60.4507 223.709 60.328 223.218 60.328C222.802 60.328 222.418 60.4347 222.066 60.648C221.714 60.8507 221.431 61.1547 221.218 61.56C221.005 61.9547 220.898 62.4453 220.898 63.032C220.898 63.6187 221.005 64.1147 221.218 64.52C221.431 64.9147 221.714 65.2187 222.066 65.432C222.418 65.6453 222.802 65.752 223.218 65.752C223.709 65.752 224.135 65.6293 224.498 65.384C224.861 65.1387 225.095 64.792 225.202 64.344H226.978C226.797 65.1973 226.37 65.8853 225.698 66.408C225.026 66.9307 224.199 67.192 223.218 67.192ZM233.169 67.192C232.412 67.192 231.729 67.0213 231.121 66.68C230.524 66.328 230.049 65.8427 229.697 65.224C229.345 64.5947 229.169 63.864 229.169 63.032C229.169 62.2 229.345 61.4747 229.697 60.856C230.06 60.2267 230.545 59.7413 231.153 59.4C231.761 59.048 232.439 58.872 233.185 58.872C233.943 58.872 234.62 59.048 235.217 59.4C235.825 59.7413 236.305 60.2267 236.657 60.856C237.02 61.4747 237.201 62.2 237.201 63.032C237.201 63.864 237.02 64.5947 236.657 65.224C236.305 65.8427 235.825 66.328 235.217 66.68C234.609 67.0213 233.927 67.192 233.169 67.192ZM233.169 65.736C233.575 65.736 233.948 65.6347 234.289 65.432C234.641 65.2293 234.924 64.9307 235.137 64.536C235.351 64.1307 235.457 63.6293 235.457 63.032C235.457 62.4347 235.351 61.9387 235.137 61.544C234.935 61.1387 234.657 60.8347 234.305 60.632C233.964 60.4293 233.591 60.328 233.185 60.328C232.78 60.328 232.401 60.4293 232.049 60.632C231.708 60.8347 231.431 61.1387 231.217 61.544C231.004 61.9387 230.897 62.4347 230.897 63.032C230.897 63.6293 231.004 64.1307 231.217 64.536C231.431 64.9307 231.708 65.2293 232.049 65.432C232.391 65.6347 232.764 65.736 233.169 65.736ZM239.675 67V59.064H241.179L241.307 60.456C241.553 59.9653 241.91 59.5813 242.379 59.304C242.859 59.016 243.409 58.872 244.027 58.872C244.987 58.872 245.739 59.1707 246.283 59.768C246.838 60.3653 247.115 61.256 247.115 62.44V67H245.435V62.616C245.435 61.08 244.806 60.312 243.547 60.312C242.918 60.312 242.395 60.536 241.979 60.984C241.574 61.432 241.371 62.072 241.371 62.904V67H239.675ZM252.921 67.192C251.918 67.192 251.092 66.9467 250.441 66.456C249.79 65.9653 249.417 65.3147 249.321 64.504H251.033C251.118 64.8667 251.321 65.1813 251.641 65.448C251.961 65.704 252.382 65.832 252.905 65.832C253.417 65.832 253.79 65.7253 254.025 65.512C254.26 65.2987 254.377 65.0533 254.377 64.776C254.377 64.3707 254.212 64.0987 253.881 63.96C253.561 63.8107 253.113 63.6773 252.537 63.56C252.089 63.464 251.641 63.336 251.193 63.176C250.756 63.016 250.388 62.792 250.089 62.504C249.801 62.2053 249.657 61.8053 249.657 61.304C249.657 60.6107 249.924 60.0347 250.457 59.576C250.99 59.1067 251.737 58.872 252.697 58.872C253.582 58.872 254.297 59.0853 254.841 59.512C255.396 59.9387 255.721 60.5413 255.817 61.32H254.185C254.132 60.9787 253.972 60.712 253.705 60.52C253.449 60.328 253.102 60.232 252.665 60.232C252.238 60.232 251.908 60.3227 251.673 60.504C251.438 60.6747 251.321 60.8987 251.321 61.176C251.321 61.4533 251.481 61.672 251.801 61.832C252.132 61.992 252.564 62.136 253.097 62.264C253.63 62.3813 254.121 62.52 254.569 62.68C255.028 62.8293 255.396 63.0533 255.673 63.352C255.95 63.6507 256.089 64.088 256.089 64.664C256.1 65.3893 255.817 65.992 255.241 66.472C254.676 66.952 253.902 67.192 252.921 67.192ZM262.292 67.192C261.514 67.192 260.82 67.0213 260.212 66.68C259.615 66.328 259.146 65.8427 258.804 65.224C258.463 64.6053 258.292 63.8853 258.292 63.064C258.292 62.232 258.458 61.5013 258.788 60.872C259.13 60.2427 259.599 59.752 260.196 59.4C260.804 59.048 261.508 58.872 262.308 58.872C263.087 58.872 263.764 59.048 264.34 59.4C264.916 59.7413 265.364 60.2 265.684 60.776C266.004 61.352 266.164 61.9867 266.164 62.68C266.164 62.7867 266.159 62.904 266.148 63.032C266.148 63.1493 266.143 63.2827 266.132 63.432H259.956C260.01 64.2 260.26 64.7867 260.708 65.192C261.167 65.5867 261.695 65.784 262.292 65.784C262.772 65.784 263.172 65.6773 263.492 65.464C263.823 65.24 264.068 64.9413 264.228 64.568H265.924C265.711 65.3147 265.284 65.9387 264.644 66.44C264.015 66.9413 263.231 67.192 262.292 67.192ZM262.292 60.264C261.727 60.264 261.226 60.4347 260.788 60.776C260.351 61.1067 260.084 61.608 259.988 62.28H264.468C264.436 61.6613 264.218 61.1707 263.812 60.808C263.407 60.4453 262.9 60.264 262.292 60.264ZM272.324 67.192C271.546 67.192 270.847 67.016 270.228 66.664C269.62 66.312 269.14 65.8267 268.788 65.208C268.447 64.5787 268.276 63.8533 268.276 63.032C268.276 62.2107 268.447 61.4907 268.788 60.872C269.14 60.2427 269.62 59.752 270.228 59.4C270.847 59.048 271.546 58.872 272.324 58.872C273.306 58.872 274.127 59.128 274.788 59.64C275.46 60.152 275.892 60.8453 276.084 61.72H274.308C274.202 61.2827 273.967 60.9413 273.604 60.696C273.242 60.4507 272.815 60.328 272.324 60.328C271.908 60.328 271.524 60.4347 271.172 60.648C270.82 60.8507 270.538 61.1547 270.324 61.56C270.111 61.9547 270.004 62.4453 270.004 63.032C270.004 63.6187 270.111 64.1147 270.324 64.52C270.538 64.9147 270.82 65.2187 271.172 65.432C271.524 65.6453 271.908 65.752 272.324 65.752C272.815 65.752 273.242 65.6293 273.604 65.384C273.967 65.1387 274.202 64.792 274.308 64.344H276.084C275.903 65.1973 275.476 65.8853 274.804 66.408C274.132 66.9307 273.306 67.192 272.324 67.192ZM281.735 67C280.957 67 280.338 66.8133 279.879 66.44C279.421 66.056 279.191 65.3787 279.191 64.408V60.488H277.831V59.064H279.191L279.399 57.048H280.887V59.064H283.127V60.488H280.887V64.408C280.887 64.8453 280.978 65.1493 281.159 65.32C281.351 65.48 281.677 65.56 282.135 65.56H283.047V67H281.735ZM289.025 67.192C288.246 67.192 287.553 67.0213 286.945 66.68C286.348 66.328 285.878 65.8427 285.537 65.224C285.196 64.6053 285.025 63.8853 285.025 63.064C285.025 62.232 285.19 61.5013 285.521 60.872C285.862 60.2427 286.332 59.752 286.929 59.4C287.537 59.048 288.241 58.872 289.041 58.872C289.82 58.872 290.497 59.048 291.073 59.4C291.649 59.7413 292.097 60.2 292.417 60.776C292.737 61.352 292.897 61.9867 292.897 62.68C292.897 62.7867 292.892 62.904 292.881 63.032C292.881 63.1493 292.876 63.2827 292.865 63.432H286.689C286.742 64.2 286.993 64.7867 287.441 65.192C287.9 65.5867 288.428 65.784 289.025 65.784C289.505 65.784 289.905 65.6773 290.225 65.464C290.556 65.24 290.801 64.9413 290.961 64.568H292.657C292.444 65.3147 292.017 65.9387 291.377 66.44C290.748 66.9413 289.964 67.192 289.025 67.192ZM289.025 60.264C288.46 60.264 287.958 60.4347 287.521 60.776C287.084 61.1067 286.817 61.608 286.721 62.28H291.201C291.169 61.6613 290.95 61.1707 290.545 60.808C290.14 60.4453 289.633 60.264 289.025 60.264ZM298.422 67C297.643 67 297.024 66.8133 296.566 66.44C296.107 66.056 295.878 65.3787 295.878 64.408V60.488H294.518V59.064H295.878L296.086 57.048H297.574V59.064H299.814V60.488H297.574V64.408C297.574 64.8453 297.664 65.1493 297.846 65.32C298.038 65.48 298.363 65.56 298.822 65.56H299.734V67H298.422ZM309.498 59.064V67H307.994L307.866 65.608C307.621 66.0987 307.258 66.488 306.778 66.776C306.309 67.0533 305.765 67.192 305.146 67.192C304.186 67.192 303.429 66.8933 302.874 66.296C302.33 65.6987 302.058 64.808 302.058 63.624V59.064H303.738V63.448C303.738 64.984 304.368 65.752 305.626 65.752C306.256 65.752 306.773 65.528 307.178 65.08C307.594 64.632 307.802 63.992 307.802 63.16V59.064H309.498ZM315.992 67.192C315.213 67.192 314.52 67.0213 313.912 66.68C313.314 66.328 312.845 65.8427 312.504 65.224C312.162 64.6053 311.992 63.8853 311.992 63.064C311.992 62.232 312.157 61.5013 312.488 60.872C312.829 60.2427 313.298 59.752 313.896 59.4C314.504 59.048 315.208 58.872 316.008 58.872C316.786 58.872 317.464 59.048 318.04 59.4C318.616 59.7413 319.064 60.2 319.384 60.776C319.704 61.352 319.864 61.9867 319.864 62.68C319.864 62.7867 319.858 62.904 319.848 63.032C319.848 63.1493 319.842 63.2827 319.832 63.432H313.656C313.709 64.2 313.96 64.7867 314.408 65.192C314.866 65.5867 315.394 65.784 315.992 65.784C316.472 65.784 316.872 65.6773 317.192 65.464C317.522 65.24 317.768 64.9413 317.928 64.568H319.624C319.41 65.3147 318.984 65.9387 318.344 66.44C317.714 66.9413 316.93 67.192 315.992 67.192ZM315.992 60.264C315.426 60.264 314.925 60.4347 314.488 60.776C314.05 61.1067 313.784 61.608 313.688 62.28H318.168C318.136 61.6613 317.917 61.1707 317.512 60.808C317.106 60.4453 316.6 60.264 315.992 60.264ZM322.264 67V59.064H323.784L323.928 60.568C324.205 60.0453 324.589 59.6347 325.08 59.336C325.581 59.0267 326.184 58.872 326.888 58.872V60.648H326.424C325.954 60.648 325.533 60.728 325.16 60.888C324.797 61.0373 324.504 61.2987 324.28 61.672C324.066 62.0347 323.96 62.5413 323.96 63.192V67H322.264ZM329.013 67.096C328.693 67.096 328.426 66.9947 328.213 66.792C328.01 66.5787 327.909 66.328 327.909 66.04C327.909 65.7413 328.01 65.4907 328.213 65.288C328.426 65.0747 328.693 64.968 329.013 64.968C329.333 64.968 329.594 65.0747 329.797 65.288C330 65.4907 330.101 65.7413 330.101 66.04C330.101 66.328 330 66.5787 329.797 66.792C329.594 66.9947 329.333 67.096 329.013 67.096ZM342.353 67.192C341.244 67.192 340.273 66.9467 339.441 66.456C338.609 65.9653 337.958 65.288 337.489 64.424C337.02 63.5493 336.785 62.5413 336.785 61.4C336.785 60.2587 337.02 59.256 337.489 58.392C337.958 57.5173 338.609 56.8347 339.441 56.344C340.273 55.8533 341.244 55.608 342.353 55.608C343.462 55.608 344.433 55.8533 345.265 56.344C346.097 56.8347 346.742 57.5173 347.201 58.392C347.67 59.256 347.905 60.2587 347.905 61.4C347.905 62.4987 347.686 63.4747 347.249 64.328C346.822 65.1813 346.225 65.8533 345.457 66.344L348.161 69.096H346.017L344.017 66.984C343.494 67.1227 342.94 67.192 342.353 67.192ZM342.353 65.672C343.121 65.672 343.788 65.5013 344.353 65.16C344.929 64.8187 345.377 64.328 345.697 63.688C346.017 63.048 346.177 62.2853 346.177 61.4C346.177 60.5147 346.017 59.752 345.697 59.112C345.377 58.472 344.929 57.9813 344.353 57.64C343.788 57.2987 343.121 57.128 342.353 57.128C341.585 57.128 340.913 57.2987 340.337 57.64C339.761 57.9813 339.313 58.472 338.993 59.112C338.684 59.752 338.529 60.5147 338.529 61.4C338.529 62.2853 338.684 63.048 338.993 63.688C339.313 64.328 339.761 64.8187 340.337 65.16C340.913 65.5013 341.585 65.672 342.353 65.672ZM357.791 59.064V67H356.287L356.159 65.608C355.914 66.0987 355.551 66.488 355.071 66.776C354.602 67.0533 354.058 67.192 353.439 67.192C352.479 67.192 351.722 66.8933 351.167 66.296C350.623 65.6987 350.351 64.808 350.351 63.624V59.064H352.031V63.448C352.031 64.984 352.661 65.752 353.919 65.752C354.549 65.752 355.066 65.528 355.471 65.08C355.887 64.632 356.095 63.992 356.095 63.16V59.064H357.791ZM361.533 57.56C361.213 57.56 360.946 57.464 360.733 57.272C360.53 57.0693 360.429 56.8187 360.429 56.52C360.429 56.2213 360.53 55.976 360.733 55.784C360.946 55.5813 361.213 55.48 361.533 55.48C361.853 55.48 362.114 55.5813 362.317 55.784C362.53 55.976 362.637 56.2213 362.637 56.52C362.637 56.8187 362.53 57.0693 362.317 57.272C362.114 57.464 361.853 57.56 361.533 57.56ZM360.685 67V59.064H362.381V67H360.685ZM368.428 67.192C367.425 67.192 366.599 66.9467 365.948 66.456C365.297 65.9653 364.924 65.3147 364.828 64.504H366.54C366.625 64.8667 366.828 65.1813 367.148 65.448C367.468 65.704 367.889 65.832 368.412 65.832C368.924 65.832 369.297 65.7253 369.532 65.512C369.767 65.2987 369.884 65.0533 369.884 64.776C369.884 64.3707 369.719 64.0987 369.388 63.96C369.068 63.8107 368.62 63.6773 368.044 63.56C367.596 63.464 367.148 63.336 366.7 63.176C366.263 63.016 365.895 62.792 365.596 62.504C365.308 62.2053 365.164 61.8053 365.164 61.304C365.164 60.6107 365.431 60.0347 365.964 59.576C366.497 59.1067 367.244 58.872 368.204 58.872C369.089 58.872 369.804 59.0853 370.348 59.512C370.903 59.9387 371.228 60.5413 371.324 61.32H369.692C369.639 60.9787 369.479 60.712 369.212 60.52C368.956 60.328 368.609 60.232 368.172 60.232C367.745 60.232 367.415 60.3227 367.18 60.504C366.945 60.6747 366.828 60.8987 366.828 61.176C366.828 61.4533 366.988 61.672 367.308 61.832C367.639 61.992 368.071 62.136 368.604 62.264C369.137 62.3813 369.628 62.52 370.076 62.68C370.535 62.8293 370.903 63.0533 371.18 63.352C371.457 63.6507 371.596 64.088 371.596 64.664C371.607 65.3893 371.324 65.992 370.748 66.472C370.183 66.952 369.409 67.192 368.428 67.192ZM380.487 70.52V65.768C380.231 66.1413 379.879 66.472 379.431 66.76C378.983 67.048 378.407 67.192 377.703 67.192C376.935 67.192 376.258 67.0107 375.671 66.648C375.085 66.2853 374.626 65.7893 374.295 65.16C373.965 64.5307 373.799 63.816 373.799 63.016C373.799 62.216 373.965 61.5067 374.295 60.888C374.626 60.2587 375.085 59.768 375.671 59.416C376.269 59.0533 376.951 58.872 377.719 58.872C378.349 58.872 378.898 58.9947 379.367 59.24C379.847 59.4853 380.221 59.832 380.487 60.28L380.663 59.064H382.183V70.52H380.487ZM378.007 65.72C378.733 65.72 379.325 65.4693 379.783 64.968C380.253 64.4667 380.487 63.8213 380.487 63.032C380.487 62.232 380.253 61.5867 379.783 61.096C379.325 60.5947 378.733 60.344 378.007 60.344C377.282 60.344 376.685 60.5947 376.215 61.096C375.746 61.5867 375.511 62.232 375.511 63.032C375.511 63.5547 375.618 64.0187 375.831 64.424C376.045 64.8293 376.338 65.1493 376.711 65.384C377.095 65.608 377.527 65.72 378.007 65.72ZM392.258 59.064V67H390.754L390.626 65.608C390.38 66.0987 390.018 66.488 389.538 66.776C389.068 67.0533 388.524 67.192 387.906 67.192C386.946 67.192 386.188 66.8933 385.634 66.296C385.09 65.6987 384.818 64.808 384.818 63.624V59.064H386.498V63.448C386.498 64.984 387.127 65.752 388.386 65.752C389.015 65.752 389.532 65.528 389.938 65.08C390.354 64.632 390.562 63.992 390.562 63.16V59.064H392.258ZM398.751 67.192C397.973 67.192 397.279 67.0213 396.671 66.68C396.074 66.328 395.605 65.8427 395.263 65.224C394.922 64.6053 394.751 63.8853 394.751 63.064C394.751 62.232 394.917 61.5013 395.247 60.872C395.589 60.2427 396.058 59.752 396.655 59.4C397.263 59.048 397.967 58.872 398.767 58.872C399.546 58.872 400.223 59.048 400.799 59.4C401.375 59.7413 401.823 60.2 402.143 60.776C402.463 61.352 402.623 61.9867 402.623 62.68C402.623 62.7867 402.618 62.904 402.607 63.032C402.607 63.1493 402.602 63.2827 402.591 63.432H396.415C396.469 64.2 396.719 64.7867 397.167 65.192C397.626 65.5867 398.154 65.784 398.751 65.784C399.231 65.784 399.631 65.6773 399.951 65.464C400.282 65.24 400.527 64.9413 400.687 64.568H402.383C402.17 65.3147 401.743 65.9387 401.103 66.44C400.474 66.9413 399.69 67.192 398.751 67.192ZM398.751 60.264C398.186 60.264 397.685 60.4347 397.247 60.776C396.81 61.1067 396.543 61.608 396.447 62.28H400.927C400.895 61.6613 400.677 61.1707 400.271 60.808C399.866 60.4453 399.359 60.264 398.751 60.264ZM413.454 67.192C412.676 67.192 411.977 67.016 411.358 66.664C410.75 66.312 410.27 65.8267 409.918 65.208C409.577 64.5787 409.406 63.8533 409.406 63.032C409.406 62.2107 409.577 61.4907 409.918 60.872C410.27 60.2427 410.75 59.752 411.358 59.4C411.977 59.048 412.676 58.872 413.454 58.872C414.436 58.872 415.257 59.128 415.918 59.64C416.59 60.152 417.022 60.8453 417.214 61.72H415.438C415.332 61.2827 415.097 60.9413 414.734 60.696C414.372 60.4507 413.945 60.328 413.454 60.328C413.038 60.328 412.654 60.4347 412.302 60.648C411.95 60.8507 411.668 61.1547 411.454 61.56C411.241 61.9547 411.134 62.4453 411.134 63.032C411.134 63.6187 411.241 64.1147 411.454 64.52C411.668 64.9147 411.95 65.2187 412.302 65.432C412.654 65.6453 413.038 65.752 413.454 65.752C413.945 65.752 414.372 65.6293 414.734 65.384C415.097 65.1387 415.332 64.792 415.438 64.344H417.214C417.033 65.1973 416.606 65.8853 415.934 66.408C415.262 66.9307 414.436 67.192 413.454 67.192ZM426.99 59.064V67H425.486L425.358 65.608C425.112 66.0987 424.75 66.488 424.27 66.776C423.8 67.0533 423.256 67.192 422.638 67.192C421.678 67.192 420.92 66.8933 420.366 66.296C419.822 65.6987 419.55 64.808 419.55 63.624V59.064H421.23V63.448C421.23 64.984 421.859 65.752 423.118 65.752C423.747 65.752 424.264 65.528 424.67 65.08C425.086 64.632 425.294 63.992 425.294 63.16V59.064H426.99ZM429.771 67V59.064H431.291L431.435 60.568C431.712 60.0453 432.096 59.6347 432.587 59.336C433.088 59.0267 433.691 58.872 434.395 58.872V60.648H433.931C433.462 60.648 433.04 60.728 432.667 60.888C432.304 61.0373 432.011 61.2987 431.787 61.672C431.574 62.0347 431.467 62.5413 431.467 63.192V67H429.771ZM439.657 67.192C438.655 67.192 437.828 66.9467 437.177 66.456C436.527 65.9653 436.153 65.3147 436.057 64.504H437.769C437.855 64.8667 438.057 65.1813 438.377 65.448C438.697 65.704 439.119 65.832 439.641 65.832C440.153 65.832 440.527 65.7253 440.761 65.512C440.996 65.2987 441.113 65.0533 441.113 64.776C441.113 64.3707 440.948 64.0987 440.617 63.96C440.297 63.8107 439.849 63.6773 439.273 63.56C438.825 63.464 438.377 63.336 437.929 63.176C437.492 63.016 437.124 62.792 436.825 62.504C436.537 62.2053 436.393 61.8053 436.393 61.304C436.393 60.6107 436.66 60.0347 437.193 59.576C437.727 59.1067 438.473 58.872 439.433 58.872C440.319 58.872 441.033 59.0853 441.577 59.512C442.132 59.9387 442.457 60.5413 442.553 61.32H440.921C440.868 60.9787 440.708 60.712 440.441 60.52C440.185 60.328 439.839 60.232 439.401 60.232C438.975 60.232 438.644 60.3227 438.409 60.504C438.175 60.6747 438.057 60.8987 438.057 61.176C438.057 61.4533 438.217 61.672 438.537 61.832C438.868 61.992 439.3 62.136 439.833 62.264C440.367 62.3813 440.857 62.52 441.305 62.68C441.764 62.8293 442.132 63.0533 442.409 63.352C442.687 63.6507 442.825 64.088 442.825 64.664C442.836 65.3893 442.553 65.992 441.977 66.472C441.412 66.952 440.639 67.192 439.657 67.192ZM452.613 59.064V67H451.109L450.981 65.608C450.735 66.0987 450.373 66.488 449.893 66.776C449.423 67.0533 448.879 67.192 448.261 67.192C447.301 67.192 446.543 66.8933 445.989 66.296C445.445 65.6987 445.173 64.808 445.173 63.624V59.064H446.853V63.448C446.853 64.984 447.482 65.752 448.741 65.752C449.37 65.752 449.887 65.528 450.293 65.08C450.709 64.632 450.917 63.992 450.917 63.16V59.064H452.613ZM458.562 67.192C457.56 67.192 456.733 66.9467 456.082 66.456C455.432 65.9653 455.058 65.3147 454.962 64.504H456.674C456.76 64.8667 456.962 65.1813 457.282 65.448C457.602 65.704 458.024 65.832 458.546 65.832C459.058 65.832 459.432 65.7253 459.666 65.512C459.901 65.2987 460.018 65.0533 460.018 64.776C460.018 64.3707 459.853 64.0987 459.522 63.96C459.202 63.8107 458.754 63.6773 458.178 63.56C457.73 63.464 457.282 63.336 456.834 63.176C456.397 63.016 456.029 62.792 455.73 62.504C455.442 62.2053 455.298 61.8053 455.298 61.304C455.298 60.6107 455.565 60.0347 456.098 59.576C456.632 59.1067 457.378 58.872 458.338 58.872C459.224 58.872 459.938 59.0853 460.482 59.512C461.037 59.9387 461.362 60.5413 461.458 61.32H459.826C459.773 60.9787 459.613 60.712 459.346 60.52C459.09 60.328 458.744 60.232 458.306 60.232C457.88 60.232 457.549 60.3227 457.314 60.504C457.08 60.6747 456.962 60.8987 456.962 61.176C456.962 61.4533 457.122 61.672 457.442 61.832C457.773 61.992 458.205 62.136 458.738 62.264C459.272 62.3813 459.762 62.52 460.21 62.68C460.669 62.8293 461.037 63.0533 461.314 63.352C461.592 63.6507 461.73 64.088 461.73 64.664C461.741 65.3893 461.458 65.992 460.882 66.472C460.317 66.952 459.544 67.192 458.562 67.192ZM472.605 67.192C471.826 67.192 471.133 67.0213 470.525 66.68C469.928 66.328 469.458 65.8427 469.117 65.224C468.776 64.6053 468.605 63.8853 468.605 63.064C468.605 62.232 468.77 61.5013 469.101 60.872C469.442 60.2427 469.912 59.752 470.509 59.4C471.117 59.048 471.821 58.872 472.621 58.872C473.4 58.872 474.077 59.048 474.653 59.4C475.229 59.7413 475.677 60.2 475.997 60.776C476.317 61.352 476.477 61.9867 476.477 62.68C476.477 62.7867 476.472 62.904 476.461 63.032C476.461 63.1493 476.456 63.2827 476.445 63.432H470.269C470.322 64.2 470.573 64.7867 471.021 65.192C471.48 65.5867 472.008 65.784 472.605 65.784C473.085 65.784 473.485 65.6773 473.805 65.464C474.136 65.24 474.381 64.9413 474.541 64.568H476.237C476.024 65.3147 475.597 65.9387 474.957 66.44C474.328 66.9413 473.544 67.192 472.605 67.192ZM472.605 60.264C472.04 60.264 471.538 60.4347 471.101 60.776C470.664 61.1067 470.397 61.608 470.301 62.28H474.781C474.749 61.6613 474.53 61.1707 474.125 60.808C473.72 60.4453 473.213 60.264 472.605 60.264ZM482.002 67C481.223 67 480.604 66.8133 480.146 66.44C479.687 66.056 479.458 65.3787 479.458 64.408V60.488H478.098V59.064H479.458L479.666 57.048H481.154V59.064H483.394V60.488H481.154V64.408C481.154 64.8453 481.244 65.1493 481.426 65.32C481.618 65.48 481.943 65.56 482.402 65.56H483.314V67H482.002ZM485.463 68.888L486.391 65.112H488.071L486.599 68.888H485.463ZM494.984 70.52V59.064H496.504L496.68 60.296C496.936 59.9227 497.288 59.592 497.736 59.304C498.184 59.016 498.76 58.872 499.464 58.872C500.232 58.872 500.91 59.0533 501.496 59.416C502.083 59.7787 502.542 60.2747 502.872 60.904C503.214 61.5333 503.384 62.248 503.384 63.048C503.384 63.848 503.214 64.5627 502.872 65.192C502.542 65.8107 502.083 66.3013 501.496 66.664C500.91 67.016 500.227 67.192 499.448 67.192C498.83 67.192 498.28 67.0693 497.8 66.824C497.331 66.5787 496.958 66.232 496.68 65.784V70.52H494.984ZM499.16 65.72C499.886 65.72 500.483 65.4747 500.952 64.984C501.422 64.4827 501.656 63.832 501.656 63.032C501.656 62.5093 501.55 62.0453 501.336 61.64C501.123 61.2347 500.83 60.92 500.456 60.696C500.083 60.4613 499.651 60.344 499.16 60.344C498.435 60.344 497.838 60.5947 497.368 61.096C496.91 61.5973 496.68 62.2427 496.68 63.032C496.68 63.832 496.91 64.4827 497.368 64.984C497.838 65.4747 498.435 65.72 499.16 65.72ZM509.571 67.192C508.813 67.192 508.131 67.0213 507.523 66.68C506.925 66.328 506.451 65.8427 506.099 65.224C505.747 64.5947 505.571 63.864 505.571 63.032C505.571 62.2 505.747 61.4747 506.099 60.856C506.461 60.2267 506.947 59.7413 507.555 59.4C508.163 59.048 508.84 58.872 509.587 58.872C510.344 58.872 511.021 59.048 511.619 59.4C512.227 59.7413 512.707 60.2267 513.059 60.856C513.421 61.4747 513.603 62.2 513.603 63.032C513.603 63.864 513.421 64.5947 513.059 65.224C512.707 65.8427 512.227 66.328 511.619 66.68C511.011 67.0213 510.328 67.192 509.571 67.192ZM509.571 65.736C509.976 65.736 510.349 65.6347 510.691 65.432C511.043 65.2293 511.325 64.9307 511.539 64.536C511.752 64.1307 511.859 63.6293 511.859 63.032C511.859 62.4347 511.752 61.9387 511.539 61.544C511.336 61.1387 511.059 60.8347 510.707 60.632C510.365 60.4293 509.992 60.328 509.587 60.328C509.181 60.328 508.803 60.4293 508.451 60.632C508.109 60.8347 507.832 61.1387 507.619 61.544C507.405 61.9387 507.299 62.4347 507.299 63.032C507.299 63.6293 507.405 64.1307 507.619 64.536C507.832 64.9307 508.109 65.2293 508.451 65.432C508.792 65.6347 509.165 65.736 509.571 65.736ZM516.077 67V59.064H517.597L517.741 60.568C518.018 60.0453 518.402 59.6347 518.893 59.336C519.394 59.0267 519.997 58.872 520.701 58.872V60.648H520.237C519.767 60.648 519.346 60.728 518.973 60.888C518.61 61.0373 518.317 61.2987 518.093 61.672C517.879 62.0347 517.773 62.5413 517.773 63.192V67H516.077ZM526.123 67C525.344 67 524.725 66.8133 524.267 66.44C523.808 66.056 523.579 65.3787 523.579 64.408V60.488H522.219V59.064H523.579L523.787 57.048H525.275V59.064H527.515V60.488H525.275V64.408C525.275 64.8453 525.365 65.1493 525.547 65.32C525.739 65.48 526.064 65.56 526.523 65.56H527.435V67H526.123ZM533.232 67C532.453 67 531.834 66.8133 531.376 66.44C530.917 66.056 530.688 65.3787 530.688 64.408V60.488H529.328V59.064H530.688L530.896 57.048H532.384V59.064H534.624V60.488H532.384V64.408C532.384 64.8453 532.474 65.1493 532.656 65.32C532.848 65.48 533.173 65.56 533.632 65.56H534.544V67H533.232ZM537.972 57.56C537.652 57.56 537.386 57.464 537.172 57.272C536.97 57.0693 536.868 56.8187 536.868 56.52C536.868 56.2213 536.97 55.976 537.172 55.784C537.386 55.5813 537.652 55.48 537.972 55.48C538.292 55.48 538.554 55.5813 538.756 55.784C538.97 55.976 539.076 56.2213 539.076 56.52C539.076 56.8187 538.97 57.0693 538.756 57.272C538.554 57.464 538.292 57.56 537.972 57.56ZM537.124 67V59.064H538.82V67H537.124ZM545.027 67C544.249 67 543.63 66.8133 543.171 66.44C542.713 66.056 542.483 65.3787 542.483 64.408V60.488H541.123V59.064H542.483L542.691 57.048H544.179V59.064H546.419V60.488H544.179V64.408C544.179 64.8453 544.27 65.1493 544.451 65.32C544.643 65.48 544.969 65.56 545.427 65.56H546.339V67H545.027ZM552.317 67.192C551.56 67.192 550.877 67.0213 550.269 66.68C549.672 66.328 549.197 65.8427 548.845 65.224C548.493 64.5947 548.317 63.864 548.317 63.032C548.317 62.2 548.493 61.4747 548.845 60.856C549.208 60.2267 549.693 59.7413 550.301 59.4C550.909 59.048 551.586 58.872 552.333 58.872C553.09 58.872 553.768 59.048 554.365 59.4C554.973 59.7413 555.453 60.2267 555.805 60.856C556.168 61.4747 556.349 62.2 556.349 63.032C556.349 63.864 556.168 64.5947 555.805 65.224C555.453 65.8427 554.973 66.328 554.365 66.68C553.757 67.0213 553.074 67.192 552.317 67.192ZM552.317 65.736C552.722 65.736 553.096 65.6347 553.437 65.432C553.789 65.2293 554.072 64.9307 554.285 64.536C554.498 64.1307 554.605 63.6293 554.605 63.032C554.605 62.4347 554.498 61.9387 554.285 61.544C554.082 61.1387 553.805 60.8347 553.453 60.632C553.112 60.4293 552.738 60.328 552.333 60.328C551.928 60.328 551.549 60.4293 551.197 60.632C550.856 60.8347 550.578 61.1387 550.365 61.544C550.152 61.9387 550.045 62.4347 550.045 63.032C550.045 63.6293 550.152 64.1307 550.365 64.536C550.578 64.9307 550.856 65.2293 551.197 65.432C551.538 65.6347 551.912 65.736 552.317 65.736ZM558.823 67V59.064H560.343L560.487 60.568C560.764 60.0453 561.148 59.6347 561.639 59.336C562.14 59.0267 562.743 58.872 563.447 58.872V60.648H562.983C562.514 60.648 562.092 60.728 561.719 60.888C561.356 61.0373 561.063 61.2987 560.839 61.672C560.626 62.0347 560.519 62.5413 560.519 63.192V67H558.823ZM570.212 67V59.064H571.732L571.876 60.568C572.154 60.0453 572.538 59.6347 573.028 59.336C573.53 59.0267 574.132 58.872 574.836 58.872V60.648H574.372C573.903 60.648 573.482 60.728 573.108 60.888C572.746 61.0373 572.452 61.2987 572.228 61.672C572.015 62.0347 571.908 62.5413 571.908 63.192V67H570.212ZM577.89 57.56C577.57 57.56 577.304 57.464 577.09 57.272C576.888 57.0693 576.786 56.8187 576.786 56.52C576.786 56.2213 576.888 55.976 577.09 55.784C577.304 55.5813 577.57 55.48 577.89 55.48C578.21 55.48 578.472 55.5813 578.674 55.784C578.888 55.976 578.994 56.2213 578.994 56.52C578.994 56.8187 578.888 57.0693 578.674 57.272C578.472 57.464 578.21 57.56 577.89 57.56ZM577.042 67V59.064H578.738V67H577.042ZM584.785 67.192C583.783 67.192 582.956 66.9467 582.305 66.456C581.655 65.9653 581.281 65.3147 581.185 64.504H582.897C582.983 64.8667 583.185 65.1813 583.505 65.448C583.825 65.704 584.247 65.832 584.769 65.832C585.281 65.832 585.655 65.7253 585.889 65.512C586.124 65.2987 586.241 65.0533 586.241 64.776C586.241 64.3707 586.076 64.0987 585.745 63.96C585.425 63.8107 584.977 63.6773 584.401 63.56C583.953 63.464 583.505 63.336 583.057 63.176C582.62 63.016 582.252 62.792 581.953 62.504C581.665 62.2053 581.521 61.8053 581.521 61.304C581.521 60.6107 581.788 60.0347 582.321 59.576C582.855 59.1067 583.601 58.872 584.561 58.872C585.447 58.872 586.161 59.0853 586.705 59.512C587.26 59.9387 587.585 60.5413 587.681 61.32H586.049C585.996 60.9787 585.836 60.712 585.569 60.52C585.313 60.328 584.967 60.232 584.529 60.232C584.103 60.232 583.772 60.3227 583.537 60.504C583.303 60.6747 583.185 60.8987 583.185 61.176C583.185 61.4533 583.345 61.672 583.665 61.832C583.996 61.992 584.428 62.136 584.961 62.264C585.495 62.3813 585.985 62.52 586.433 62.68C586.892 62.8293 587.26 63.0533 587.537 63.352C587.815 63.6507 587.953 64.088 587.953 64.664C587.964 65.3893 587.681 65.992 587.105 66.472C586.54 66.952 585.767 67.192 584.785 67.192ZM597.741 59.064V67H596.237L596.109 65.608C595.864 66.0987 595.501 66.488 595.021 66.776C594.552 67.0533 594.008 67.192 593.389 67.192C592.429 67.192 591.672 66.8933 591.117 66.296C590.573 65.6987 590.301 64.808 590.301 63.624V59.064H591.981V63.448C591.981 64.984 592.61 65.752 593.869 65.752C594.498 65.752 595.016 65.528 595.421 65.08C595.837 64.632 596.045 63.992 596.045 63.16V59.064H597.741ZM603.69 67.192C602.688 67.192 601.861 66.9467 601.21 66.456C600.56 65.9653 600.186 65.3147 600.09 64.504H601.802C601.888 64.8667 602.09 65.1813 602.41 65.448C602.73 65.704 603.152 65.832 603.674 65.832C604.186 65.832 604.56 65.7253 604.794 65.512C605.029 65.2987 605.146 65.0533 605.146 64.776C605.146 64.3707 604.981 64.0987 604.65 63.96C604.33 63.8107 603.882 63.6773 603.306 63.56C602.858 63.464 602.41 63.336 601.962 63.176C601.525 63.016 601.157 62.792 600.858 62.504C600.57 62.2053 600.426 61.8053 600.426 61.304C600.426 60.6107 600.693 60.0347 601.226 59.576C601.76 59.1067 602.506 58.872 603.466 58.872C604.352 58.872 605.066 59.0853 605.61 59.512C606.165 59.9387 606.49 60.5413 606.586 61.32H604.954C604.901 60.9787 604.741 60.712 604.474 60.52C604.218 60.328 603.872 60.232 603.434 60.232C603.008 60.232 602.677 60.3227 602.442 60.504C602.208 60.6747 602.09 60.8987 602.09 61.176C602.09 61.4533 602.25 61.672 602.57 61.832C602.901 61.992 603.333 62.136 603.866 62.264C604.4 62.3813 604.89 62.52 605.338 62.68C605.797 62.8293 606.165 63.0533 606.442 63.352C606.72 63.6507 606.858 64.088 606.858 64.664C606.869 65.3893 606.586 65.992 606.01 66.472C605.445 66.952 604.672 67.192 603.69 67.192ZM610.022 67.096C609.702 67.096 609.435 66.9947 609.222 66.792C609.019 66.5787 608.918 66.328 608.918 66.04C608.918 65.7413 609.019 65.4907 609.222 65.288C609.435 65.0747 609.702 64.968 610.022 64.968C610.342 64.968 610.603 65.0747 610.806 65.288C611.008 65.4907 611.11 65.7413 611.11 66.04C611.11 66.328 611.008 66.5787 610.806 66.792C610.603 66.9947 610.342 67.096 610.022 67.096ZM617.474 67L621.602 55.8H623.458L627.554 67H625.762L624.802 64.264H620.226L619.266 67H617.474ZM620.706 62.92H624.322L622.514 57.816L620.706 62.92ZM629.692 67V55.48H631.388V67H629.692ZM635.135 57.56C634.815 57.56 634.549 57.464 634.335 57.272C634.133 57.0693 634.031 56.8187 634.031 56.52C634.031 56.2213 634.133 55.976 634.335 55.784C634.549 55.5813 634.815 55.48 635.135 55.48C635.455 55.48 635.717 55.5813 635.919 55.784C636.133 55.976 636.239 56.2213 636.239 56.52C636.239 56.8187 636.133 57.0693 635.919 57.272C635.717 57.464 635.455 57.56 635.135 57.56ZM634.287 67V59.064H635.983V67H634.287ZM645.262 70.52V65.768C645.006 66.1413 644.654 66.472 644.206 66.76C643.758 67.048 643.182 67.192 642.478 67.192C641.71 67.192 641.033 67.0107 640.446 66.648C639.86 66.2853 639.401 65.7893 639.07 65.16C638.74 64.5307 638.574 63.816 638.574 63.016C638.574 62.216 638.74 61.5067 639.07 60.888C639.401 60.2587 639.86 59.768 640.446 59.416C641.044 59.0533 641.726 58.872 642.494 58.872C643.124 58.872 643.673 58.9947 644.142 59.24C644.622 59.4853 644.996 59.832 645.262 60.28L645.438 59.064H646.958V70.52H645.262ZM642.782 65.72C643.508 65.72 644.1 65.4693 644.558 64.968C645.028 64.4667 645.262 63.8213 645.262 63.032C645.262 62.232 645.028 61.5867 644.558 61.096C644.1 60.5947 643.508 60.344 642.782 60.344C642.057 60.344 641.46 60.5947 640.99 61.096C640.521 61.5867 640.286 62.232 640.286 63.032C640.286 63.5547 640.393 64.0187 640.606 64.424C640.82 64.8293 641.113 65.1493 641.486 65.384C641.87 65.608 642.302 65.72 642.782 65.72ZM657.033 59.064V67H655.529L655.401 65.608C655.155 66.0987 654.793 66.488 654.313 66.776C653.843 67.0533 653.299 67.192 652.681 67.192C651.721 67.192 650.963 66.8933 650.409 66.296C649.865 65.6987 649.593 64.808 649.593 63.624V59.064H651.273V63.448C651.273 64.984 651.902 65.752 653.161 65.752C653.79 65.752 654.307 65.528 654.713 65.08C655.129 64.632 655.337 63.992 655.337 63.16V59.064H657.033ZM662.502 67.192C661.83 67.192 661.276 67.08 660.838 66.856C660.401 66.632 660.076 66.3387 659.862 65.976C659.649 65.6027 659.542 65.1973 659.542 64.76C659.542 63.992 659.841 63.384 660.438 62.936C661.036 62.488 661.889 62.264 662.998 62.264H665.078V62.12C665.078 61.5013 664.908 61.0373 664.566 60.728C664.236 60.4187 663.804 60.264 663.27 60.264C662.801 60.264 662.39 60.3813 662.038 60.616C661.697 60.84 661.489 61.176 661.414 61.624H659.718C659.772 61.048 659.964 60.5573 660.294 60.152C660.636 59.736 661.062 59.4213 661.574 59.208C662.097 58.984 662.668 58.872 663.286 58.872C664.396 58.872 665.254 59.1653 665.862 59.752C666.47 60.328 666.774 61.1173 666.774 62.12V67H665.302L665.158 65.64C664.934 66.0773 664.609 66.4453 664.182 66.744C663.756 67.0427 663.196 67.192 662.502 67.192ZM662.838 65.816C663.297 65.816 663.681 65.7093 663.99 65.496C664.31 65.272 664.556 64.9787 664.726 64.616C664.908 64.2533 665.02 63.8533 665.062 63.416H663.174C662.502 63.416 662.022 63.5333 661.734 63.768C661.457 64.0027 661.318 64.296 661.318 64.648C661.318 65.0107 661.452 65.2987 661.718 65.512C661.996 65.7147 662.369 65.816 662.838 65.816ZM669.392 67V59.064H670.896L671.04 60.184C671.296 59.7787 671.632 59.4587 672.048 59.224C672.474 58.9893 672.965 58.872 673.52 58.872C674.778 58.872 675.653 59.368 676.144 60.36C676.432 59.9013 676.816 59.5387 677.296 59.272C677.786 59.0053 678.314 58.872 678.88 58.872C679.872 58.872 680.65 59.1707 681.216 59.768C681.781 60.3653 682.064 61.256 682.064 62.44V67H680.368V62.616C680.368 61.08 679.781 60.312 678.608 60.312C678.01 60.312 677.52 60.536 677.136 60.984C676.762 61.432 676.576 62.072 676.576 62.904V67H674.88V62.616C674.88 61.08 674.288 60.312 673.104 60.312C672.517 60.312 672.032 60.536 671.648 60.984C671.274 61.432 671.088 62.072 671.088 62.904V67H669.392ZM692.527 67.192C691.525 67.192 690.698 66.9467 690.047 66.456C689.397 65.9653 689.023 65.3147 688.927 64.504H690.639C690.725 64.8667 690.927 65.1813 691.247 65.448C691.567 65.704 691.989 65.832 692.511 65.832C693.023 65.832 693.397 65.7253 693.631 65.512C693.866 65.2987 693.983 65.0533 693.983 64.776C693.983 64.3707 693.818 64.0987 693.487 63.96C693.167 63.8107 692.719 63.6773 692.143 63.56C691.695 63.464 691.247 63.336 690.799 63.176C690.362 63.016 689.994 62.792 689.695 62.504C689.407 62.2053 689.263 61.8053 689.263 61.304C689.263 60.6107 689.53 60.0347 690.063 59.576C690.597 59.1067 691.343 58.872 692.303 58.872C693.189 58.872 693.903 59.0853 694.447 59.512C695.002 59.9387 695.327 60.5413 695.423 61.32H693.791C693.738 60.9787 693.578 60.712 693.311 60.52C693.055 60.328 692.709 60.232 692.271 60.232C691.845 60.232 691.514 60.3227 691.279 60.504C691.045 60.6747 690.927 60.8987 690.927 61.176C690.927 61.4533 691.087 61.672 691.407 61.832C691.738 61.992 692.17 62.136 692.703 62.264C693.237 62.3813 693.727 62.52 694.175 62.68C694.634 62.8293 695.002 63.0533 695.279 63.352C695.557 63.6507 695.695 64.088 695.695 64.664C695.706 65.3893 695.423 65.992 694.847 66.472C694.282 66.952 693.509 67.192 692.527 67.192ZM701.899 67.192C701.12 67.192 700.427 67.0213 699.819 66.68C699.221 66.328 698.752 65.8427 698.411 65.224C698.069 64.6053 697.899 63.8853 697.899 63.064C697.899 62.232 698.064 61.5013 698.395 60.872C698.736 60.2427 699.205 59.752 699.803 59.4C700.411 59.048 701.115 58.872 701.915 58.872C702.693 58.872 703.371 59.048 703.947 59.4C704.523 59.7413 704.971 60.2 705.291 60.776C705.611 61.352 705.771 61.9867 705.771 62.68C705.771 62.7867 705.765 62.904 705.755 63.032C705.755 63.1493 705.749 63.2827 705.739 63.432H699.563C699.616 64.2 699.867 64.7867 700.315 65.192C700.773 65.5867 701.301 65.784 701.899 65.784C702.379 65.784 702.779 65.6773 703.099 65.464C703.429 65.24 703.675 64.9413 703.835 64.568H705.531C705.317 65.3147 704.891 65.9387 704.251 66.44C703.621 66.9413 702.837 67.192 701.899 67.192ZM701.899 60.264C701.333 60.264 700.832 60.4347 700.395 60.776C699.957 61.1067 699.691 61.608 699.595 62.28H704.075C704.043 61.6613 703.824 61.1707 703.419 60.808C703.013 60.4453 702.507 60.264 701.899 60.264ZM708.17 67V59.064H709.674L709.818 60.184C710.074 59.7787 710.41 59.4587 710.826 59.224C711.253 58.9893 711.744 58.872 712.298 58.872C713.557 58.872 714.432 59.368 714.922 60.36C715.21 59.9013 715.594 59.5387 716.074 59.272C716.565 59.0053 717.093 58.872 717.658 58.872C718.65 58.872 719.429 59.1707 719.994 59.768C720.56 60.3653 720.842 61.256 720.842 62.44V67H719.146V62.616C719.146 61.08 718.56 60.312 717.386 60.312C716.789 60.312 716.298 60.536 715.914 60.984C715.541 61.432 715.354 62.072 715.354 62.904V67H713.658V62.616C713.658 61.08 713.066 60.312 711.882 60.312C711.296 60.312 710.81 60.536 710.426 60.984C710.053 61.432 709.866 62.072 709.866 62.904V67H708.17ZM724.139 67.096C723.819 67.096 723.552 66.9947 723.339 66.792C723.136 66.5787 723.035 66.328 723.035 66.04C723.035 65.7413 723.136 65.4907 723.339 65.288C723.552 65.0747 723.819 64.968 724.139 64.968C724.459 64.968 724.72 65.0747 724.923 65.288C725.125 65.4907 725.227 65.7413 725.227 66.04C725.227 66.328 725.125 66.5787 724.923 66.792C724.72 66.9947 724.459 67.096 724.139 67.096ZM732.311 67V55.8H734.007V67H732.311ZM736.855 67V59.064H738.359L738.487 60.456C738.733 59.9653 739.09 59.5813 739.559 59.304C740.039 59.016 740.589 58.872 741.207 58.872C742.167 58.872 742.919 59.1707 743.463 59.768C744.018 60.3653 744.295 61.256 744.295 62.44V67H742.615V62.616C742.615 61.08 741.986 60.312 740.727 60.312C740.098 60.312 739.575 60.536 739.159 60.984C738.754 61.432 738.551 62.072 738.551 62.904V67H736.855ZM751.604 67V55.48H753.3V60.344C753.567 59.8853 753.935 59.528 754.404 59.272C754.884 59.0053 755.412 58.872 755.988 58.872C756.938 58.872 757.684 59.1707 758.228 59.768C758.772 60.3653 759.044 61.256 759.044 62.44V67H757.364V62.616C757.364 61.08 756.751 60.312 755.524 60.312C754.884 60.312 754.351 60.536 753.924 60.984C753.508 61.432 753.3 62.072 753.3 62.904V67H751.604ZM765.394 67.192C764.615 67.192 763.922 67.0213 763.314 66.68C762.716 66.328 762.247 65.8427 761.906 65.224C761.564 64.6053 761.394 63.8853 761.394 63.064C761.394 62.232 761.559 61.5013 761.89 60.872C762.231 60.2427 762.7 59.752 763.298 59.4C763.906 59.048 764.61 58.872 765.41 58.872C766.188 58.872 766.866 59.048 767.442 59.4C768.018 59.7413 768.466 60.2 768.786 60.776C769.106 61.352 769.266 61.9867 769.266 62.68C769.266 62.7867 769.26 62.904 769.25 63.032C769.25 63.1493 769.244 63.2827 769.234 63.432H763.058C763.111 64.2 763.362 64.7867 763.81 65.192C764.268 65.5867 764.796 65.784 765.394 65.784C765.874 65.784 766.274 65.6773 766.594 65.464C766.924 65.24 767.17 64.9413 767.33 64.568H769.026C768.812 65.3147 768.386 65.9387 767.746 66.44C767.116 66.9413 766.332 67.192 765.394 67.192ZM765.394 60.264C764.828 60.264 764.327 60.4347 763.89 60.776C763.452 61.1067 763.186 61.608 763.09 62.28H767.57C767.538 61.6613 767.319 61.1707 766.914 60.808C766.508 60.4453 766.002 60.264 765.394 60.264ZM771.665 67V59.064H773.169L773.297 60.456C773.543 59.9653 773.9 59.5813 774.369 59.304C774.849 59.016 775.399 58.872 776.017 58.872C776.977 58.872 777.729 59.1707 778.273 59.768C778.828 60.3653 779.105 61.256 779.105 62.44V67H777.425V62.616C777.425 61.08 776.796 60.312 775.537 60.312C774.908 60.312 774.385 60.536 773.969 60.984C773.564 61.432 773.361 62.072 773.361 62.904V67H771.665ZM785.359 67.192C784.591 67.192 783.914 67.0107 783.327 66.648C782.74 66.2853 782.282 65.7893 781.951 65.16C781.62 64.5307 781.455 63.816 781.455 63.016C781.455 62.216 781.62 61.5067 781.951 60.888C782.282 60.2587 782.74 59.768 783.327 59.416C783.924 59.0533 784.607 58.872 785.375 58.872C786.004 58.872 786.554 58.9947 787.023 59.24C787.503 59.4853 787.876 59.832 788.143 60.28V55.48H789.839V67H788.319L788.143 65.768C787.887 66.1413 787.535 66.472 787.087 66.76C786.639 67.048 786.063 67.192 785.359 67.192ZM785.663 65.72C786.388 65.72 786.98 65.4693 787.439 64.968C787.908 64.4667 788.143 63.8213 788.143 63.032C788.143 62.232 787.908 61.5867 787.439 61.096C786.98 60.5947 786.388 60.344 785.663 60.344C784.938 60.344 784.34 60.5947 783.871 61.096C783.402 61.5867 783.167 62.232 783.167 63.032C783.167 63.5547 783.274 64.0187 783.487 64.424C783.7 64.8293 783.994 65.1493 784.367 65.384C784.751 65.608 785.183 65.72 785.663 65.72ZM792.617 67V59.064H794.137L794.281 60.568C794.559 60.0453 794.943 59.6347 795.433 59.336C795.935 59.0267 796.537 58.872 797.241 58.872V60.648H796.777C796.308 60.648 795.887 60.728 795.513 60.888C795.151 61.0373 794.857 61.2987 794.633 61.672C794.42 62.0347 794.313 62.5413 794.313 63.192V67H792.617ZM802.829 67.192C802.05 67.192 801.357 67.0213 800.749 66.68C800.151 66.328 799.682 65.8427 799.341 65.224C798.999 64.6053 798.829 63.8853 798.829 63.064C798.829 62.232 798.994 61.5013 799.325 60.872C799.666 60.2427 800.135 59.752 800.733 59.4C801.341 59.048 802.045 58.872 802.845 58.872C803.623 58.872 804.301 59.048 804.877 59.4C805.453 59.7413 805.901 60.2 806.221 60.776C806.541 61.352 806.701 61.9867 806.701 62.68C806.701 62.7867 806.695 62.904 806.685 63.032C806.685 63.1493 806.679 63.2827 806.669 63.432H800.493C800.546 64.2 800.797 64.7867 801.245 65.192C801.703 65.5867 802.231 65.784 802.829 65.784C803.309 65.784 803.709 65.6773 804.029 65.464C804.359 65.24 804.605 64.9413 804.765 64.568H806.461C806.247 65.3147 805.821 65.9387 805.181 66.44C804.551 66.9413 803.767 67.192 802.829 67.192ZM802.829 60.264C802.263 60.264 801.762 60.4347 801.325 60.776C800.887 61.1067 800.621 61.608 800.525 62.28H805.005C804.973 61.6613 804.754 61.1707 804.349 60.808C803.943 60.4453 803.437 60.264 802.829 60.264ZM809.1 67V59.064H810.62L810.764 60.568C811.042 60.0453 811.426 59.6347 811.916 59.336C812.418 59.0267 813.02 58.872 813.724 58.872V60.648H813.26C812.791 60.648 812.37 60.728 811.996 60.888C811.634 61.0373 811.34 61.2987 811.116 61.672C810.903 62.0347 810.796 62.5413 810.796 63.192V67H809.1ZM816.779 57.56C816.459 57.56 816.192 57.464 815.979 57.272C815.776 57.0693 815.675 56.8187 815.675 56.52C815.675 56.2213 815.776 55.976 815.979 55.784C816.192 55.5813 816.459 55.48 816.779 55.48C817.099 55.48 817.36 55.5813 817.563 55.784C817.776 55.976 817.883 56.2213 817.883 56.52C817.883 56.8187 817.776 57.0693 817.563 57.272C817.36 57.464 817.099 57.56 816.779 57.56ZM815.931 67V59.064H817.627V67H815.931ZM823.833 67C823.055 67 822.436 66.8133 821.977 66.44C821.519 66.056 821.289 65.3787 821.289 64.408V60.488H819.929V59.064H821.289L821.497 57.048H822.985V59.064H825.225V60.488H822.985V64.408C822.985 64.8453 823.076 65.1493 823.257 65.32C823.449 65.48 823.775 65.56 824.233 65.56H825.145V67H823.833ZM165.227 97V89.064H166.731L166.859 90.456C167.104 89.9653 167.461 89.5813 167.931 89.304C168.411 89.016 168.96 88.872 169.579 88.872C170.539 88.872 171.291 89.1707 171.835 89.768C172.389 90.3653 172.667 91.256 172.667 92.44V97H170.987V92.616C170.987 91.08 170.357 90.312 169.099 90.312C168.469 90.312 167.947 90.536 167.531 90.984C167.125 91.432 166.923 92.072 166.923 92.904V97H165.227ZM182.6 89.064V97H181.096L180.968 95.608C180.723 96.0987 180.36 96.488 179.88 96.776C179.411 97.0533 178.867 97.192 178.248 97.192C177.288 97.192 176.531 96.8933 175.976 96.296C175.432 95.6987 175.16 94.808 175.16 93.624V89.064H176.84V93.448C176.84 94.984 177.47 95.752 178.728 95.752C179.358 95.752 179.875 95.528 180.28 95.08C180.696 94.632 180.904 93.992 180.904 93.16V89.064H182.6ZM185.382 97V85.48H187.078V97H185.382ZM189.865 97V85.48H191.561V97H189.865ZM197.037 97.192C196.365 97.192 195.811 97.08 195.373 96.856C194.936 96.632 194.611 96.3387 194.397 95.976C194.184 95.6027 194.077 95.1973 194.077 94.76C194.077 93.992 194.376 93.384 194.973 92.936C195.571 92.488 196.424 92.264 197.533 92.264H199.613V92.12C199.613 91.5013 199.443 91.0373 199.101 90.728C198.771 90.4187 198.339 90.264 197.805 90.264C197.336 90.264 196.925 90.3813 196.573 90.616C196.232 90.84 196.024 91.176 195.949 91.624H194.253C194.307 91.048 194.499 90.5573 194.829 90.152C195.171 89.736 195.597 89.4213 196.109 89.208C196.632 88.984 197.203 88.872 197.821 88.872C198.931 88.872 199.789 89.1653 200.397 89.752C201.005 90.328 201.309 91.1173 201.309 92.12V97H199.837L199.693 95.64C199.469 96.0773 199.144 96.4453 198.717 96.744C198.291 97.0427 197.731 97.192 197.037 97.192ZM197.373 95.816C197.832 95.816 198.216 95.7093 198.525 95.496C198.845 95.272 199.091 94.9787 199.261 94.616C199.443 94.2533 199.555 93.8533 199.597 93.416H197.709C197.037 93.416 196.557 93.5333 196.269 93.768C195.992 94.0027 195.853 94.296 195.853 94.648C195.853 95.0107 195.987 95.2987 196.253 95.512C196.531 95.7147 196.904 95.816 197.373 95.816ZM214.998 100.52V95.768C214.742 96.1413 214.39 96.472 213.942 96.76C213.494 97.048 212.918 97.192 212.214 97.192C211.446 97.192 210.769 97.0107 210.182 96.648C209.595 96.2853 209.137 95.7893 208.806 95.16C208.475 94.5307 208.31 93.816 208.31 93.016C208.31 92.216 208.475 91.5067 208.806 90.888C209.137 90.2587 209.595 89.768 210.182 89.416C210.779 89.0533 211.462 88.872 212.23 88.872C212.859 88.872 213.409 88.9947 213.878 89.24C214.358 89.4853 214.731 89.832 214.998 90.28L215.174 89.064H216.694V100.52H214.998ZM212.518 95.72C213.243 95.72 213.835 95.4693 214.294 94.968C214.763 94.4667 214.998 93.8213 214.998 93.032C214.998 92.232 214.763 91.5867 214.294 91.096C213.835 90.5947 213.243 90.344 212.518 90.344C211.793 90.344 211.195 90.5947 210.726 91.096C210.257 91.5867 210.022 92.232 210.022 93.032C210.022 93.5547 210.129 94.0187 210.342 94.424C210.555 94.8293 210.849 95.1493 211.222 95.384C211.606 95.608 212.038 95.72 212.518 95.72ZM226.768 89.064V97H225.264L225.136 95.608C224.891 96.0987 224.528 96.488 224.048 96.776C223.579 97.0533 223.035 97.192 222.416 97.192C221.456 97.192 220.699 96.8933 220.144 96.296C219.6 95.6987 219.328 94.808 219.328 93.624V89.064H221.008V93.448C221.008 94.984 221.638 95.752 222.896 95.752C223.526 95.752 224.043 95.528 224.448 95.08C224.864 94.632 225.072 93.992 225.072 93.16V89.064H226.768ZM232.238 97.192C231.566 97.192 231.011 97.08 230.574 96.856C230.136 96.632 229.811 96.3387 229.598 95.976C229.384 95.6027 229.278 95.1973 229.278 94.76C229.278 93.992 229.576 93.384 230.174 92.936C230.771 92.488 231.624 92.264 232.734 92.264H234.814V92.12C234.814 91.5013 234.643 91.0373 234.302 90.728C233.971 90.4187 233.539 90.264 233.006 90.264C232.536 90.264 232.126 90.3813 231.774 90.616C231.432 90.84 231.224 91.176 231.15 91.624H229.454C229.507 91.048 229.699 90.5573 230.03 90.152C230.371 89.736 230.798 89.4213 231.31 89.208C231.832 88.984 232.403 88.872 233.022 88.872C234.131 88.872 234.99 89.1653 235.598 89.752C236.206 90.328 236.51 91.1173 236.51 92.12V97H235.038L234.894 95.64C234.67 96.0773 234.344 96.4453 233.918 96.744C233.491 97.0427 232.931 97.192 232.238 97.192ZM232.574 95.816C233.032 95.816 233.416 95.7093 233.726 95.496C234.046 95.272 234.291 94.9787 234.462 94.616C234.643 94.2533 234.755 93.8533 234.798 93.416H232.91C232.238 93.416 231.758 93.5333 231.47 93.768C231.192 94.0027 231.054 94.296 231.054 94.648C231.054 95.0107 231.187 95.2987 231.454 95.512C231.731 95.7147 232.104 95.816 232.574 95.816ZM239.127 97V89.064H240.631L240.775 90.184C241.031 89.7787 241.367 89.4587 241.783 89.224C242.21 88.9893 242.701 88.872 243.255 88.872C244.514 88.872 245.389 89.368 245.879 90.36C246.167 89.9013 246.551 89.5387 247.031 89.272C247.522 89.0053 248.05 88.872 248.615 88.872C249.607 88.872 250.386 89.1707 250.951 89.768C251.517 90.3653 251.799 91.256 251.799 92.44V97H250.103V92.616C250.103 91.08 249.517 90.312 248.343 90.312C247.746 90.312 247.255 90.536 246.871 90.984C246.498 91.432 246.311 92.072 246.311 92.904V97H244.615V92.616C244.615 91.08 244.023 90.312 242.839 90.312C242.253 90.312 241.767 90.536 241.383 90.984C241.01 91.432 240.823 92.072 240.823 92.904V97H239.127ZM259.095 97V89.064H260.599L260.727 90.456C260.972 89.9653 261.329 89.5813 261.799 89.304C262.279 89.016 262.828 88.872 263.447 88.872C264.407 88.872 265.159 89.1707 265.703 89.768C266.257 90.3653 266.535 91.256 266.535 92.44V97H264.855V92.616C264.855 91.08 264.225 90.312 262.967 90.312C262.337 90.312 261.815 90.536 261.399 90.984C260.993 91.432 260.791 92.072 260.791 92.904V97H259.095ZM276.468 89.064V97H274.964L274.836 95.608C274.591 96.0987 274.228 96.488 273.748 96.776C273.279 97.0533 272.735 97.192 272.116 97.192C271.156 97.192 270.399 96.8933 269.844 96.296C269.3 95.6987 269.028 94.808 269.028 93.624V89.064H270.708V93.448C270.708 94.984 271.338 95.752 272.596 95.752C273.226 95.752 273.743 95.528 274.148 95.08C274.564 94.632 274.772 93.992 274.772 93.16V89.064H276.468ZM279.25 97V89.064H280.754L280.882 90.456C281.127 89.9653 281.484 89.5813 281.954 89.304C282.434 89.016 282.983 88.872 283.602 88.872C284.562 88.872 285.314 89.1707 285.858 89.768C286.412 90.3653 286.69 91.256 286.69 92.44V97H285.01V92.616C285.01 91.08 284.38 90.312 283.122 90.312C282.492 90.312 281.97 90.536 281.554 90.984C281.148 91.432 280.946 92.072 280.946 92.904V97H279.25ZM293.087 97.192C292.309 97.192 291.61 97.016 290.991 96.664C290.383 96.312 289.903 95.8267 289.551 95.208C289.21 94.5787 289.039 93.8533 289.039 93.032C289.039 92.2107 289.21 91.4907 289.551 90.872C289.903 90.2427 290.383 89.752 290.991 89.4C291.61 89.048 292.309 88.872 293.087 88.872C294.069 88.872 294.89 89.128 295.551 89.64C296.223 90.152 296.655 90.8453 296.847 91.72H295.071C294.965 91.2827 294.73 90.9413 294.367 90.696C294.005 90.4507 293.578 90.328 293.087 90.328C292.671 90.328 292.287 90.4347 291.935 90.648C291.583 90.8507 291.301 91.1547 291.087 91.56C290.874 91.9547 290.767 92.4453 290.767 93.032C290.767 93.6187 290.874 94.1147 291.087 94.52C291.301 94.9147 291.583 95.2187 291.935 95.432C292.287 95.6453 292.671 95.752 293.087 95.752C293.578 95.752 294.005 95.6293 294.367 95.384C294.73 95.1387 294.965 94.792 295.071 94.344H296.847C296.666 95.1973 296.239 95.8853 295.567 96.408C294.895 96.9307 294.069 97.192 293.087 97.192ZM298.383 98.888L299.311 95.112H300.991L299.519 98.888H298.383ZM310.592 97.192C309.92 97.192 309.365 97.08 308.928 96.856C308.49 96.632 308.165 96.3387 307.952 95.976C307.738 95.6027 307.632 95.1973 307.632 94.76C307.632 93.992 307.93 93.384 308.528 92.936C309.125 92.488 309.978 92.264 311.088 92.264H313.168V92.12C313.168 91.5013 312.997 91.0373 312.656 90.728C312.325 90.4187 311.893 90.264 311.36 90.264C310.89 90.264 310.48 90.3813 310.128 90.616C309.786 90.84 309.578 91.176 309.504 91.624H307.808C307.861 91.048 308.053 90.5573 308.384 90.152C308.725 89.736 309.152 89.4213 309.664 89.208C310.186 88.984 310.757 88.872 311.376 88.872C312.485 88.872 313.344 89.1653 313.952 89.752C314.56 90.328 314.864 91.1173 314.864 92.12V97H313.392L313.248 95.64C313.024 96.0773 312.698 96.4453 312.272 96.744C311.845 97.0427 311.285 97.192 310.592 97.192ZM310.928 95.816C311.386 95.816 311.77 95.7093 312.08 95.496C312.4 95.272 312.645 94.9787 312.816 94.616C312.997 94.2533 313.109 93.8533 313.152 93.416H311.264C310.592 93.416 310.112 93.5333 309.824 93.768C309.546 94.0027 309.408 94.296 309.408 94.648C309.408 95.0107 309.541 95.2987 309.808 95.512C310.085 95.7147 310.458 95.816 310.928 95.816ZM321.241 97.192C320.462 97.192 319.764 97.016 319.145 96.664C318.537 96.312 318.057 95.8267 317.705 95.208C317.364 94.5787 317.193 93.8533 317.193 93.032C317.193 92.2107 317.364 91.4907 317.705 90.872C318.057 90.2427 318.537 89.752 319.145 89.4C319.764 89.048 320.462 88.872 321.241 88.872C322.222 88.872 323.044 89.128 323.705 89.64C324.377 90.152 324.809 90.8453 325.001 91.72H323.225C323.118 91.2827 322.884 90.9413 322.521 90.696C322.158 90.4507 321.732 90.328 321.241 90.328C320.825 90.328 320.441 90.4347 320.089 90.648C319.737 90.8507 319.454 91.1547 319.241 91.56C319.028 91.9547 318.921 92.4453 318.921 93.032C318.921 93.6187 319.028 94.1147 319.241 94.52C319.454 94.9147 319.737 95.2187 320.089 95.432C320.441 95.6453 320.825 95.752 321.241 95.752C321.732 95.752 322.158 95.6293 322.521 95.384C322.884 95.1387 323.118 94.792 323.225 94.344H325.001C324.82 95.1973 324.393 95.8853 323.721 96.408C323.049 96.9307 322.222 97.192 321.241 97.192ZM331.24 97.192C330.462 97.192 329.763 97.016 329.144 96.664C328.536 96.312 328.056 95.8267 327.704 95.208C327.363 94.5787 327.192 93.8533 327.192 93.032C327.192 92.2107 327.363 91.4907 327.704 90.872C328.056 90.2427 328.536 89.752 329.144 89.4C329.763 89.048 330.462 88.872 331.24 88.872C332.222 88.872 333.043 89.128 333.704 89.64C334.376 90.152 334.808 90.8453 335 91.72H333.224C333.118 91.2827 332.883 90.9413 332.52 90.696C332.158 90.4507 331.731 90.328 331.24 90.328C330.824 90.328 330.44 90.4347 330.088 90.648C329.736 90.8507 329.454 91.1547 329.24 91.56C329.027 91.9547 328.92 92.4453 328.92 93.032C328.92 93.6187 329.027 94.1147 329.24 94.52C329.454 94.9147 329.736 95.2187 330.088 95.432C330.44 95.6453 330.824 95.752 331.24 95.752C331.731 95.752 332.158 95.6293 332.52 95.384C332.883 95.1387 333.118 94.792 333.224 94.344H335C334.819 95.1973 334.392 95.8853 333.72 96.408C333.048 96.9307 332.222 97.192 331.24 97.192ZM344.776 89.064V97H343.272L343.144 95.608C342.898 96.0987 342.536 96.488 342.056 96.776C341.586 97.0533 341.042 97.192 340.424 97.192C339.464 97.192 338.706 96.8933 338.152 96.296C337.608 95.6987 337.336 94.808 337.336 93.624V89.064H339.016V93.448C339.016 94.984 339.645 95.752 340.904 95.752C341.533 95.752 342.05 95.528 342.456 95.08C342.872 94.632 343.08 93.992 343.08 93.16V89.064H344.776ZM347.557 97V89.064H349.061L349.205 90.184C349.461 89.7787 349.797 89.4587 350.213 89.224C350.64 88.9893 351.131 88.872 351.685 88.872C352.944 88.872 353.819 89.368 354.309 90.36C354.597 89.9013 354.981 89.5387 355.461 89.272C355.952 89.0053 356.48 88.872 357.045 88.872C358.037 88.872 358.816 89.1707 359.381 89.768C359.947 90.3653 360.229 91.256 360.229 92.44V97H358.533V92.616C358.533 91.08 357.947 90.312 356.773 90.312C356.176 90.312 355.685 90.536 355.301 90.984C354.928 91.432 354.741 92.072 354.741 92.904V97H353.045V92.616C353.045 91.08 352.453 90.312 351.269 90.312C350.683 90.312 350.197 90.536 349.813 90.984C349.44 91.432 349.253 92.072 349.253 92.904V97H347.557ZM366.022 97.192C365.019 97.192 364.192 96.9467 363.542 96.456C362.891 95.9653 362.518 95.3147 362.422 94.504H364.134C364.219 94.8667 364.422 95.1813 364.742 95.448C365.062 95.704 365.483 95.832 366.006 95.832C366.518 95.832 366.891 95.7253 367.126 95.512C367.36 95.2987 367.478 95.0533 367.478 94.776C367.478 94.3707 367.312 94.0987 366.982 93.96C366.662 93.8107 366.214 93.6773 365.638 93.56C365.19 93.464 364.742 93.336 364.294 93.176C363.856 93.016 363.488 92.792 363.19 92.504C362.902 92.2053 362.758 91.8053 362.758 91.304C362.758 90.6107 363.024 90.0347 363.558 89.576C364.091 89.1067 364.838 88.872 365.798 88.872C366.683 88.872 367.398 89.0853 367.942 89.512C368.496 89.9387 368.822 90.5413 368.918 91.32H367.286C367.232 90.9787 367.072 90.712 366.806 90.52C366.55 90.328 366.203 90.232 365.766 90.232C365.339 90.232 365.008 90.3227 364.774 90.504C364.539 90.6747 364.422 90.8987 364.422 91.176C364.422 91.4533 364.582 91.672 364.902 91.832C365.232 91.992 365.664 92.136 366.198 92.264C366.731 92.3813 367.222 92.52 367.67 92.68C368.128 92.8293 368.496 93.0533 368.774 93.352C369.051 93.6507 369.19 94.088 369.19 94.664C369.2 95.3893 368.918 95.992 368.342 96.472C367.776 96.952 367.003 97.192 366.022 97.192ZM374.369 97.192C373.697 97.192 373.142 97.08 372.705 96.856C372.268 96.632 371.942 96.3387 371.729 95.976C371.516 95.6027 371.409 95.1973 371.409 94.76C371.409 93.992 371.708 93.384 372.305 92.936C372.902 92.488 373.756 92.264 374.865 92.264H376.945V92.12C376.945 91.5013 376.774 91.0373 376.433 90.728C376.102 90.4187 375.67 90.264 375.137 90.264C374.668 90.264 374.257 90.3813 373.905 90.616C373.564 90.84 373.356 91.176 373.281 91.624H371.585C371.638 91.048 371.83 90.5573 372.161 90.152C372.502 89.736 372.929 89.4213 373.441 89.208C373.964 88.984 374.534 88.872 375.153 88.872C376.262 88.872 377.121 89.1653 377.729 89.752C378.337 90.328 378.641 91.1173 378.641 92.12V97H377.169L377.025 95.64C376.801 96.0773 376.476 96.4453 376.049 96.744C375.622 97.0427 375.062 97.192 374.369 97.192ZM374.705 95.816C375.164 95.816 375.548 95.7093 375.857 95.496C376.177 95.272 376.422 94.9787 376.593 94.616C376.774 94.2533 376.886 93.8533 376.929 93.416H375.041C374.369 93.416 373.889 93.5333 373.601 93.768C373.324 94.0027 373.185 94.296 373.185 94.648C373.185 95.0107 373.318 95.2987 373.585 95.512C373.862 95.7147 374.236 95.816 374.705 95.816ZM381.259 97V89.064H382.763L382.891 90.456C383.136 89.9653 383.493 89.5813 383.963 89.304C384.443 89.016 384.992 88.872 385.611 88.872C386.571 88.872 387.323 89.1707 387.867 89.768C388.421 90.3653 388.699 91.256 388.699 92.44V97H387.019V92.616C387.019 91.08 386.389 90.312 385.131 90.312C384.501 90.312 383.979 90.536 383.563 90.984C383.157 91.432 382.955 92.072 382.955 92.904V97H381.259ZM399.767 97.192C398.989 97.192 398.29 97.016 397.671 96.664C397.063 96.312 396.583 95.8267 396.231 95.208C395.89 94.5787 395.719 93.8533 395.719 93.032C395.719 92.2107 395.89 91.4907 396.231 90.872C396.583 90.2427 397.063 89.752 397.671 89.4C398.29 89.048 398.989 88.872 399.767 88.872C400.749 88.872 401.57 89.128 402.231 89.64C402.903 90.152 403.335 90.8453 403.527 91.72H401.751C401.645 91.2827 401.41 90.9413 401.047 90.696C400.685 90.4507 400.258 90.328 399.767 90.328C399.351 90.328 398.967 90.4347 398.615 90.648C398.263 90.8507 397.981 91.1547 397.767 91.56C397.554 91.9547 397.447 92.4453 397.447 93.032C397.447 93.6187 397.554 94.1147 397.767 94.52C397.981 94.9147 398.263 95.2187 398.615 95.432C398.967 95.6453 399.351 95.752 399.767 95.752C400.258 95.752 400.685 95.6293 401.047 95.384C401.41 95.1387 401.645 94.792 401.751 94.344H403.527C403.346 95.1973 402.919 95.8853 402.247 96.408C401.575 96.9307 400.749 97.192 399.767 97.192ZM409.719 97.192C408.961 97.192 408.279 97.0213 407.671 96.68C407.073 96.328 406.599 95.8427 406.247 95.224C405.895 94.5947 405.719 93.864 405.719 93.032C405.719 92.2 405.895 91.4747 406.247 90.856C406.609 90.2267 407.095 89.7413 407.703 89.4C408.311 89.048 408.988 88.872 409.735 88.872C410.492 88.872 411.169 89.048 411.767 89.4C412.375 89.7413 412.855 90.2267 413.207 90.856C413.569 91.4747 413.751 92.2 413.751 93.032C413.751 93.864 413.569 94.5947 413.207 95.224C412.855 95.8427 412.375 96.328 411.767 96.68C411.159 97.0213 410.476 97.192 409.719 97.192ZM409.719 95.736C410.124 95.736 410.497 95.6347 410.839 95.432C411.191 95.2293 411.473 94.9307 411.687 94.536C411.9 94.1307 412.007 93.6293 412.007 93.032C412.007 92.4347 411.9 91.9387 411.687 91.544C411.484 91.1387 411.207 90.8347 410.855 90.632C410.513 90.4293 410.14 90.328 409.735 90.328C409.329 90.328 408.951 90.4293 408.599 90.632C408.257 90.8347 407.98 91.1387 407.767 91.544C407.553 91.9387 407.447 92.4347 407.447 93.032C407.447 93.6293 407.553 94.1307 407.767 94.536C407.98 94.9307 408.257 95.2293 408.599 95.432C408.94 95.6347 409.313 95.736 409.719 95.736ZM416.225 97V89.064H417.729L417.857 90.456C418.102 89.9653 418.459 89.5813 418.929 89.304C419.409 89.016 419.958 88.872 420.577 88.872C421.537 88.872 422.289 89.1707 422.833 89.768C423.387 90.3653 423.665 91.256 423.665 92.44V97H421.985V92.616C421.985 91.08 421.355 90.312 420.097 90.312C419.467 90.312 418.945 90.536 418.529 90.984C418.123 91.432 417.921 92.072 417.921 92.904V97H416.225ZM429.55 94.568C429.134 94.568 428.75 94.52 428.398 94.424L427.71 95.096C427.828 95.1707 427.972 95.2347 428.142 95.288C428.313 95.3413 428.553 95.3893 428.862 95.432C429.172 95.4747 429.593 95.5173 430.126 95.56C431.182 95.656 431.945 95.912 432.414 96.328C432.884 96.7333 433.118 97.2773 433.118 97.96C433.118 98.4293 432.99 98.872 432.734 99.288C432.489 99.7147 432.1 100.056 431.566 100.312C431.044 100.579 430.372 100.712 429.55 100.712C428.441 100.712 427.54 100.499 426.846 100.072C426.164 99.656 425.822 99.0213 425.822 98.168C425.822 97.8373 425.908 97.5067 426.078 97.176C426.26 96.856 426.542 96.552 426.926 96.264C426.702 96.168 426.505 96.0667 426.334 95.96C426.174 95.8427 426.03 95.7253 425.902 95.608V95.224L427.278 93.816C426.66 93.2827 426.35 92.584 426.35 91.72C426.35 91.1973 426.473 90.7227 426.718 90.296C426.974 89.8587 427.342 89.512 427.822 89.256C428.302 89 428.878 88.872 429.55 88.872C429.998 88.872 430.414 88.936 430.798 89.064H433.758V90.184L432.35 90.264C432.606 90.7013 432.734 91.1867 432.734 91.72C432.734 92.2533 432.606 92.7333 432.35 93.16C432.105 93.5867 431.742 93.928 431.262 94.184C430.793 94.44 430.222 94.568 429.55 94.568ZM429.55 93.24C430.041 93.24 430.436 93.112 430.734 92.856C431.044 92.5893 431.198 92.216 431.198 91.736C431.198 91.2453 431.044 90.872 430.734 90.616C430.436 90.36 430.041 90.232 429.55 90.232C429.049 90.232 428.644 90.36 428.334 90.616C428.036 90.872 427.886 91.2453 427.886 91.736C427.886 92.216 428.036 92.5893 428.334 92.856C428.644 93.112 429.049 93.24 429.55 93.24ZM427.422 98.008C427.422 98.4667 427.625 98.808 428.03 99.032C428.436 99.2667 428.942 99.384 429.55 99.384C430.137 99.384 430.612 99.256 430.974 99C431.337 98.7547 431.518 98.424 431.518 98.008C431.518 97.6987 431.396 97.432 431.15 97.208C430.905 96.9947 430.441 96.8613 429.758 96.808C429.246 96.776 428.793 96.728 428.398 96.664C428.025 96.8667 427.769 97.0853 427.63 97.32C427.492 97.5547 427.422 97.784 427.422 98.008ZM443.207 89.064V97H441.703L441.575 95.608C441.33 96.0987 440.967 96.488 440.487 96.776C440.018 97.0533 439.474 97.192 438.855 97.192C437.895 97.192 437.138 96.8933 436.583 96.296C436.039 95.6987 435.767 94.808 435.767 93.624V89.064H437.447V93.448C437.447 94.984 438.076 95.752 439.335 95.752C439.964 95.752 440.482 95.528 440.887 95.08C441.303 94.632 441.511 93.992 441.511 93.16V89.064H443.207ZM449.701 97.192C448.922 97.192 448.229 97.0213 447.621 96.68C447.023 96.328 446.554 95.8427 446.213 95.224C445.871 94.6053 445.701 93.8853 445.701 93.064C445.701 92.232 445.866 91.5013 446.197 90.872C446.538 90.2427 447.007 89.752 447.605 89.4C448.213 89.048 448.917 88.872 449.717 88.872C450.495 88.872 451.173 89.048 451.749 89.4C452.325 89.7413 452.773 90.2 453.093 90.776C453.413 91.352 453.573 91.9867 453.573 92.68C453.573 92.7867 453.567 92.904 453.557 93.032C453.557 93.1493 453.551 93.2827 453.541 93.432H447.365C447.418 94.2 447.669 94.7867 448.117 95.192C448.575 95.5867 449.103 95.784 449.701 95.784C450.181 95.784 450.581 95.6773 450.901 95.464C451.231 95.24 451.477 94.9413 451.637 94.568H453.333C453.119 95.3147 452.693 95.9387 452.053 96.44C451.423 96.9413 450.639 97.192 449.701 97.192ZM449.701 90.264C449.135 90.264 448.634 90.4347 448.197 90.776C447.759 91.1067 447.493 91.608 447.397 92.28H451.877C451.845 91.6613 451.626 91.1707 451.221 90.808C450.815 90.4453 450.309 90.264 449.701 90.264ZM456.644 97.096C456.324 97.096 456.058 96.9947 455.844 96.792C455.642 96.5787 455.54 96.328 455.54 96.04C455.54 95.7413 455.642 95.4907 455.844 95.288C456.058 95.0747 456.324 94.968 456.644 94.968C456.964 94.968 457.226 95.0747 457.428 95.288C457.631 95.4907 457.732 95.7413 457.732 96.04C457.732 96.328 457.631 96.5787 457.428 96.792C457.226 96.9947 456.964 97.096 456.644 97.096ZM464.816 97V85.8H466.512V95.656H471.6V97H464.816ZM477.37 97.192C476.613 97.192 475.93 97.0213 475.322 96.68C474.725 96.328 474.25 95.8427 473.898 95.224C473.546 94.5947 473.37 93.864 473.37 93.032C473.37 92.2 473.546 91.4747 473.898 90.856C474.261 90.2267 474.746 89.7413 475.354 89.4C475.962 89.048 476.639 88.872 477.386 88.872C478.143 88.872 478.821 89.048 479.418 89.4C480.026 89.7413 480.506 90.2267 480.858 90.856C481.221 91.4747 481.402 92.2 481.402 93.032C481.402 93.864 481.221 94.5947 480.858 95.224C480.506 95.8427 480.026 96.328 479.418 96.68C478.81 97.0213 478.127 97.192 477.37 97.192ZM477.37 95.736C477.775 95.736 478.149 95.6347 478.49 95.432C478.842 95.2293 479.125 94.9307 479.338 94.536C479.551 94.1307 479.658 93.6293 479.658 93.032C479.658 92.4347 479.551 91.9387 479.338 91.544C479.135 91.1387 478.858 90.8347 478.506 90.632C478.165 90.4293 477.791 90.328 477.386 90.328C476.981 90.328 476.602 90.4293 476.25 90.632C475.909 90.8347 475.631 91.1387 475.418 91.544C475.205 91.9387 475.098 92.4347 475.098 93.032C475.098 93.6293 475.205 94.1307 475.418 94.536C475.631 94.9307 475.909 95.2293 476.25 95.432C476.591 95.6347 476.965 95.736 477.37 95.736ZM483.876 97V89.064H485.396L485.54 90.568C485.817 90.0453 486.201 89.6347 486.692 89.336C487.193 89.0267 487.796 88.872 488.5 88.872V90.648H488.036C487.567 90.648 487.145 90.728 486.772 90.888C486.409 91.0373 486.116 91.2987 485.892 91.672C485.679 92.0347 485.572 92.5413 485.572 93.192V97H483.876ZM494.087 97.192C493.309 97.192 492.615 97.0213 492.007 96.68C491.41 96.328 490.941 95.8427 490.599 95.224C490.258 94.6053 490.087 93.8853 490.087 93.064C490.087 92.232 490.253 91.5013 490.583 90.872C490.925 90.2427 491.394 89.752 491.991 89.4C492.599 89.048 493.303 88.872 494.103 88.872C494.882 88.872 495.559 89.048 496.135 89.4C496.711 89.7413 497.159 90.2 497.479 90.776C497.799 91.352 497.959 91.9867 497.959 92.68C497.959 92.7867 497.954 92.904 497.943 93.032C497.943 93.1493 497.938 93.2827 497.927 93.432H491.751C491.805 94.2 492.055 94.7867 492.503 95.192C492.962 95.5867 493.49 95.784 494.087 95.784C494.567 95.784 494.967 95.6773 495.287 95.464C495.618 95.24 495.863 94.9413 496.023 94.568H497.719C497.506 95.3147 497.079 95.9387 496.439 96.44C495.81 96.9413 495.026 97.192 494.087 97.192ZM494.087 90.264C493.522 90.264 493.021 90.4347 492.583 90.776C492.146 91.1067 491.879 91.608 491.783 92.28H496.263C496.231 91.6613 496.013 91.1707 495.607 90.808C495.202 90.4453 494.695 90.264 494.087 90.264ZM500.359 97V89.064H501.863L502.007 90.184C502.263 89.7787 502.599 89.4587 503.015 89.224C503.442 88.9893 503.933 88.872 504.487 88.872C505.746 88.872 506.621 89.368 507.111 90.36C507.399 89.9013 507.783 89.5387 508.263 89.272C508.754 89.0053 509.282 88.872 509.847 88.872C510.839 88.872 511.618 89.1707 512.183 89.768C512.749 90.3653 513.031 91.256 513.031 92.44V97H511.335V92.616C511.335 91.08 510.749 90.312 509.575 90.312C508.978 90.312 508.487 90.536 508.103 90.984C507.73 91.432 507.543 92.072 507.543 92.904V97H505.847V92.616C505.847 91.08 505.255 90.312 504.071 90.312C503.485 90.312 502.999 90.536 502.615 90.984C502.242 91.432 502.055 92.072 502.055 92.904V97H500.359ZM521.287 87.56C520.967 87.56 520.7 87.464 520.487 87.272C520.284 87.0693 520.183 86.8187 520.183 86.52C520.183 86.2213 520.284 85.976 520.487 85.784C520.7 85.5813 520.967 85.48 521.287 85.48C521.607 85.48 521.868 85.5813 522.071 85.784C522.284 85.976 522.391 86.2213 522.391 86.52C522.391 86.8187 522.284 87.0693 522.071 87.272C521.868 87.464 521.607 87.56 521.287 87.56ZM520.439 97V89.064H522.135V97H520.439ZM525.014 100.52V89.064H526.534L526.71 90.296C526.966 89.9227 527.318 89.592 527.766 89.304C528.214 89.016 528.79 88.872 529.494 88.872C530.262 88.872 530.939 89.0533 531.526 89.416C532.112 89.7787 532.571 90.2747 532.902 90.904C533.243 91.5333 533.414 92.248 533.414 93.048C533.414 93.848 533.243 94.5627 532.902 95.192C532.571 95.8107 532.112 96.3013 531.526 96.664C530.939 97.016 530.256 97.192 529.478 97.192C528.859 97.192 528.31 97.0693 527.83 96.824C527.36 96.5787 526.987 96.232 526.71 95.784V100.52H525.014ZM529.19 95.72C529.915 95.72 530.512 95.4747 530.982 94.984C531.451 94.4827 531.686 93.832 531.686 93.032C531.686 92.5093 531.579 92.0453 531.366 91.64C531.152 91.2347 530.859 90.92 530.486 90.696C530.112 90.4613 529.68 90.344 529.19 90.344C528.464 90.344 527.867 90.5947 527.398 91.096C526.939 91.5973 526.71 92.2427 526.71 93.032C526.71 93.832 526.939 94.4827 527.398 94.984C527.867 95.4747 528.464 95.72 529.19 95.72ZM539.056 97.192C538.053 97.192 537.227 96.9467 536.576 96.456C535.925 95.9653 535.552 95.3147 535.456 94.504H537.168C537.253 94.8667 537.456 95.1813 537.776 95.448C538.096 95.704 538.517 95.832 539.04 95.832C539.552 95.832 539.925 95.7253 540.16 95.512C540.395 95.2987 540.512 95.0533 540.512 94.776C540.512 94.3707 540.347 94.0987 540.016 93.96C539.696 93.8107 539.248 93.6773 538.672 93.56C538.224 93.464 537.776 93.336 537.328 93.176C536.891 93.016 536.523 92.792 536.224 92.504C535.936 92.2053 535.792 91.8053 535.792 91.304C535.792 90.6107 536.059 90.0347 536.592 89.576C537.125 89.1067 537.872 88.872 538.832 88.872C539.717 88.872 540.432 89.0853 540.976 89.512C541.531 89.9387 541.856 90.5413 541.952 91.32H540.32C540.267 90.9787 540.107 90.712 539.84 90.52C539.584 90.328 539.237 90.232 538.8 90.232C538.373 90.232 538.043 90.3227 537.808 90.504C537.573 90.6747 537.456 90.8987 537.456 91.176C537.456 91.4533 537.616 91.672 537.936 91.832C538.267 91.992 538.699 92.136 539.232 92.264C539.765 92.3813 540.256 92.52 540.704 92.68C541.163 92.8293 541.531 93.0533 541.808 93.352C542.085 93.6507 542.224 94.088 542.224 94.664C542.235 95.3893 541.952 95.992 541.376 96.472C540.811 96.952 540.037 97.192 539.056 97.192ZM552.011 89.064V97H550.507L550.379 95.608C550.134 96.0987 549.771 96.488 549.291 96.776C548.822 97.0533 548.278 97.192 547.659 97.192C546.699 97.192 545.942 96.8933 545.387 96.296C544.843 95.6987 544.571 94.808 544.571 93.624V89.064H546.251V93.448C546.251 94.984 546.881 95.752 548.139 95.752C548.769 95.752 549.286 95.528 549.691 95.08C550.107 94.632 550.315 93.992 550.315 93.16V89.064H552.011ZM554.793 97V89.064H556.297L556.441 90.184C556.697 89.7787 557.033 89.4587 557.449 89.224C557.876 88.9893 558.366 88.872 558.921 88.872C560.18 88.872 561.054 89.368 561.545 90.36C561.833 89.9013 562.217 89.5387 562.697 89.272C563.188 89.0053 563.716 88.872 564.281 88.872C565.273 88.872 566.052 89.1707 566.617 89.768C567.182 90.3653 567.465 91.256 567.465 92.44V97H565.769V92.616C565.769 91.08 565.182 90.312 564.009 90.312C563.412 90.312 562.921 90.536 562.537 90.984C562.164 91.432 561.977 92.072 561.977 92.904V97H560.281V92.616C560.281 91.08 559.689 90.312 558.505 90.312C557.918 90.312 557.433 90.536 557.049 90.984C556.676 91.432 556.489 92.072 556.489 92.904V97H554.793ZM574.76 100.52V89.064H576.28L576.456 90.296C576.712 89.9227 577.064 89.592 577.512 89.304C577.96 89.016 578.536 88.872 579.24 88.872C580.008 88.872 580.686 89.0533 581.272 89.416C581.859 89.7787 582.318 90.2747 582.648 90.904C582.99 91.5333 583.16 92.248 583.16 93.048C583.16 93.848 582.99 94.5627 582.648 95.192C582.318 95.8107 581.859 96.3013 581.272 96.664C580.686 97.016 580.003 97.192 579.224 97.192C578.606 97.192 578.056 97.0693 577.576 96.824C577.107 96.5787 576.734 96.232 576.456 95.784V100.52H574.76ZM578.936 95.72C579.662 95.72 580.259 95.4747 580.728 94.984C581.198 94.4827 581.432 93.832 581.432 93.032C581.432 92.5093 581.326 92.0453 581.112 91.64C580.899 91.2347 580.606 90.92 580.232 90.696C579.859 90.4613 579.427 90.344 578.936 90.344C578.211 90.344 577.614 90.5947 577.144 91.096C576.686 91.5973 576.456 92.2427 576.456 93.032C576.456 93.832 576.686 94.4827 577.144 94.984C577.614 95.4747 578.211 95.72 578.936 95.72ZM585.635 97V89.064H587.155L587.299 90.568C587.576 90.0453 587.96 89.6347 588.451 89.336C588.952 89.0267 589.555 88.872 590.259 88.872V90.648H589.795C589.325 90.648 588.904 90.728 588.531 90.888C588.168 91.0373 587.875 91.2987 587.651 91.672C587.437 92.0347 587.331 92.5413 587.331 93.192V97H585.635ZM593.313 87.56C592.993 87.56 592.726 87.464 592.513 87.272C592.31 87.0693 592.209 86.8187 592.209 86.52C592.209 86.2213 592.31 85.976 592.513 85.784C592.726 85.5813 592.993 85.48 593.313 85.48C593.633 85.48 593.894 85.5813 594.097 85.784C594.31 85.976 594.417 86.2213 594.417 86.52C594.417 86.8187 594.31 87.0693 594.097 87.272C593.894 87.464 593.633 87.56 593.313 87.56ZM592.465 97V89.064H594.161V97H592.465ZM597.04 97V89.064H598.544L598.688 90.184C598.944 89.7787 599.28 89.4587 599.696 89.224C600.122 88.9893 600.613 88.872 601.168 88.872C602.426 88.872 603.301 89.368 603.792 90.36C604.08 89.9013 604.464 89.5387 604.944 89.272C605.434 89.0053 605.962 88.872 606.528 88.872C607.52 88.872 608.298 89.1707 608.864 89.768C609.429 90.3653 609.712 91.256 609.712 92.44V97H608.016V92.616C608.016 91.08 607.429 90.312 606.256 90.312C605.658 90.312 605.168 90.536 604.784 90.984C604.41 91.432 604.224 92.072 604.224 92.904V97H602.528V92.616C602.528 91.08 601.936 90.312 600.752 90.312C600.165 90.312 599.68 90.536 599.296 90.984C598.922 91.432 598.736 92.072 598.736 92.904V97H597.04ZM613.296 87.56C612.976 87.56 612.709 87.464 612.496 87.272C612.293 87.0693 612.192 86.8187 612.192 86.52C612.192 86.2213 612.293 85.976 612.496 85.784C612.709 85.5813 612.976 85.48 613.296 85.48C613.616 85.48 613.877 85.5813 614.08 85.784C614.293 85.976 614.4 86.2213 614.4 86.52C614.4 86.8187 614.293 87.0693 614.08 87.272C613.877 87.464 613.616 87.56 613.296 87.56ZM612.448 97V89.064H614.144V97H612.448ZM620.191 97.192C619.188 97.192 618.362 96.9467 617.711 96.456C617.06 95.9653 616.687 95.3147 616.591 94.504H618.303C618.388 94.8667 618.591 95.1813 618.911 95.448C619.231 95.704 619.652 95.832 620.175 95.832C620.687 95.832 621.06 95.7253 621.295 95.512C621.53 95.2987 621.647 95.0533 621.647 94.776C621.647 94.3707 621.482 94.0987 621.151 93.96C620.831 93.8107 620.383 93.6773 619.807 93.56C619.359 93.464 618.911 93.336 618.463 93.176C618.026 93.016 617.658 92.792 617.359 92.504C617.071 92.2053 616.927 91.8053 616.927 91.304C616.927 90.6107 617.194 90.0347 617.727 89.576C618.26 89.1067 619.007 88.872 619.967 88.872C620.852 88.872 621.567 89.0853 622.111 89.512C622.666 89.9387 622.991 90.5413 623.087 91.32H621.455C621.402 90.9787 621.242 90.712 620.975 90.52C620.719 90.328 620.372 90.232 619.935 90.232C619.508 90.232 619.178 90.3227 618.943 90.504C618.708 90.6747 618.591 90.8987 618.591 91.176C618.591 91.4533 618.751 91.672 619.071 91.832C619.402 91.992 619.834 92.136 620.367 92.264C620.9 92.3813 621.391 92.52 621.839 92.68C622.298 92.8293 622.666 93.0533 622.943 93.352C623.22 93.6507 623.359 94.088 623.359 94.664C623.37 95.3893 623.087 95.992 622.511 96.472C621.946 96.952 621.172 97.192 620.191 97.192ZM631.482 87.56C631.162 87.56 630.895 87.464 630.682 87.272C630.479 87.0693 630.378 86.8187 630.378 86.52C630.378 86.2213 630.479 85.976 630.682 85.784C630.895 85.5813 631.162 85.48 631.482 85.48C631.802 85.48 632.063 85.5813 632.266 85.784C632.479 85.976 632.586 86.2213 632.586 86.52C632.586 86.8187 632.479 87.0693 632.266 87.272C632.063 87.464 631.802 87.56 631.482 87.56ZM630.634 97V89.064H632.33V97H630.634ZM635.209 97V89.064H636.713L636.841 90.456C637.086 89.9653 637.443 89.5813 637.913 89.304C638.393 89.016 638.942 88.872 639.561 88.872C640.521 88.872 641.273 89.1707 641.817 89.768C642.371 90.3653 642.649 91.256 642.649 92.44V97H640.969V92.616C640.969 91.08 640.339 90.312 639.081 90.312C638.451 90.312 637.929 90.536 637.513 90.984C637.107 91.432 636.905 92.072 636.905 92.904V97H635.209ZM649.957 97V89.064H651.461L651.589 90.456C651.835 89.9653 652.192 89.5813 652.661 89.304C653.141 89.016 653.691 88.872 654.309 88.872C655.269 88.872 656.021 89.1707 656.565 89.768C657.12 90.3653 657.397 91.256 657.397 92.44V97H655.717V92.616C655.717 91.08 655.088 90.312 653.829 90.312C653.2 90.312 652.677 90.536 652.261 90.984C651.856 91.432 651.653 92.072 651.653 92.904V97H649.957ZM660.995 87.56C660.675 87.56 660.408 87.464 660.195 87.272C659.992 87.0693 659.891 86.8187 659.891 86.52C659.891 86.2213 659.992 85.976 660.195 85.784C660.408 85.5813 660.675 85.48 660.995 85.48C661.315 85.48 661.576 85.5813 661.779 85.784C661.992 85.976 662.099 86.2213 662.099 86.52C662.099 86.8187 661.992 87.0693 661.779 87.272C661.576 87.464 661.315 87.56 660.995 87.56ZM660.147 97V89.064H661.843V97H660.147ZM669.186 97.192C668.567 97.192 668.018 97.0693 667.538 96.824C667.068 96.5787 666.695 96.232 666.418 95.784L666.242 97H664.722V85.48H666.418V90.296C666.674 89.9227 667.026 89.592 667.474 89.304C667.922 89.016 668.498 88.872 669.202 88.872C669.97 88.872 670.647 89.0533 671.234 89.416C671.82 89.7787 672.279 90.2747 672.61 90.904C672.951 91.5333 673.122 92.248 673.122 93.048C673.122 93.848 672.951 94.5627 672.61 95.192C672.279 95.8107 671.82 96.3013 671.234 96.664C670.647 97.016 669.964 97.192 669.186 97.192ZM668.898 95.72C669.623 95.72 670.22 95.4747 670.69 94.984C671.159 94.4827 671.394 93.832 671.394 93.032C671.394 92.5093 671.287 92.0453 671.074 91.64C670.86 91.2347 670.567 90.92 670.194 90.696C669.82 90.4613 669.388 90.344 668.898 90.344C668.172 90.344 667.575 90.5947 667.106 91.096C666.647 91.5973 666.418 92.2427 666.418 93.032C666.418 93.832 666.647 94.4827 667.106 94.984C667.575 95.4747 668.172 95.72 668.898 95.72ZM675.596 97V85.48H677.292V90.344C677.559 89.8853 677.927 89.528 678.396 89.272C678.876 89.0053 679.404 88.872 679.98 88.872C680.929 88.872 681.676 89.1707 682.22 89.768C682.764 90.3653 683.036 91.256 683.036 92.44V97H681.356V92.616C681.356 91.08 680.743 90.312 679.516 90.312C678.876 90.312 678.343 90.536 677.916 90.984C677.5 91.432 677.292 92.072 677.292 92.904V97H675.596ZM692.569 97L689.593 89.064H691.369L693.577 95.384L695.785 89.064H697.545L694.585 97H692.569ZM702.884 97.192C702.106 97.192 701.412 97.0213 700.804 96.68C700.207 96.328 699.738 95.8427 699.396 95.224C699.055 94.6053 698.884 93.8853 698.884 93.064C698.884 92.232 699.05 91.5013 699.38 90.872C699.722 90.2427 700.191 89.752 700.788 89.4C701.396 89.048 702.1 88.872 702.9 88.872C703.679 88.872 704.356 89.048 704.932 89.4C705.508 89.7413 705.956 90.2 706.276 90.776C706.596 91.352 706.756 91.9867 706.756 92.68C706.756 92.7867 706.751 92.904 706.74 93.032C706.74 93.1493 706.735 93.2827 706.724 93.432H700.548C700.602 94.2 700.852 94.7867 701.3 95.192C701.759 95.5867 702.287 95.784 702.884 95.784C703.364 95.784 703.764 95.6773 704.084 95.464C704.415 95.24 704.66 94.9413 704.82 94.568H706.516C706.303 95.3147 705.876 95.9387 705.236 96.44C704.607 96.9413 703.823 97.192 702.884 97.192ZM702.884 90.264C702.319 90.264 701.818 90.4347 701.38 90.776C700.943 91.1067 700.676 91.608 700.58 92.28H705.06C705.028 91.6613 704.81 91.1707 704.404 90.808C703.999 90.4453 703.492 90.264 702.884 90.264ZM709.156 97V85.48H710.852V97H709.156ZM718.311 97V89.064H719.831L719.975 90.568C720.252 90.0453 720.636 89.6347 721.127 89.336C721.628 89.0267 722.231 88.872 722.935 88.872V90.648H722.471C722.002 90.648 721.58 90.728 721.207 90.888C720.844 91.0373 720.551 91.2987 720.327 91.672C720.114 92.0347 720.007 92.5413 720.007 93.192V97H718.311ZM725.989 87.56C725.669 87.56 725.402 87.464 725.189 87.272C724.986 87.0693 724.885 86.8187 724.885 86.52C724.885 86.2213 724.986 85.976 725.189 85.784C725.402 85.5813 725.669 85.48 725.989 85.48C726.309 85.48 726.57 85.5813 726.773 85.784C726.986 85.976 727.093 86.2213 727.093 86.52C727.093 86.8187 726.986 87.0693 726.773 87.272C726.57 87.464 726.309 87.56 725.989 87.56ZM725.141 97V89.064H726.837V97H725.141ZM732.884 97.192C731.881 97.192 731.055 96.9467 730.404 96.456C729.753 95.9653 729.38 95.3147 729.284 94.504H730.996C731.081 94.8667 731.284 95.1813 731.604 95.448C731.924 95.704 732.345 95.832 732.868 95.832C733.38 95.832 733.753 95.7253 733.988 95.512C734.223 95.2987 734.34 95.0533 734.34 94.776C734.34 94.3707 734.175 94.0987 733.844 93.96C733.524 93.8107 733.076 93.6773 732.5 93.56C732.052 93.464 731.604 93.336 731.156 93.176C730.719 93.016 730.351 92.792 730.052 92.504C729.764 92.2053 729.62 91.8053 729.62 91.304C729.62 90.6107 729.887 90.0347 730.42 89.576C730.953 89.1067 731.7 88.872 732.66 88.872C733.545 88.872 734.26 89.0853 734.804 89.512C735.359 89.9387 735.684 90.5413 735.78 91.32H734.148C734.095 90.9787 733.935 90.712 733.668 90.52C733.412 90.328 733.065 90.232 732.628 90.232C732.201 90.232 731.871 90.3227 731.636 90.504C731.401 90.6747 731.284 90.8987 731.284 91.176C731.284 91.4533 731.444 91.672 731.764 91.832C732.095 91.992 732.527 92.136 733.06 92.264C733.593 92.3813 734.084 92.52 734.532 92.68C734.991 92.8293 735.359 93.0533 735.636 93.352C735.913 93.6507 736.052 94.088 736.052 94.664C736.063 95.3893 735.78 95.992 735.204 96.472C734.639 96.952 733.865 97.192 732.884 97.192ZM745.84 89.064V97H744.336L744.208 95.608C743.962 96.0987 743.6 96.488 743.12 96.776C742.65 97.0533 742.106 97.192 741.488 97.192C740.528 97.192 739.77 96.8933 739.216 96.296C738.672 95.6987 738.4 94.808 738.4 93.624V89.064H740.08V93.448C740.08 94.984 740.709 95.752 741.968 95.752C742.597 95.752 743.114 95.528 743.52 95.08C743.936 94.632 744.144 93.992 744.144 93.16V89.064H745.84ZM751.789 97.192C750.786 97.192 749.96 96.9467 749.309 96.456C748.658 95.9653 748.285 95.3147 748.189 94.504H749.901C749.986 94.8667 750.189 95.1813 750.509 95.448C750.829 95.704 751.25 95.832 751.773 95.832C752.285 95.832 752.658 95.7253 752.893 95.512C753.128 95.2987 753.245 95.0533 753.245 94.776C753.245 94.3707 753.08 94.0987 752.749 93.96C752.429 93.8107 751.981 93.6773 751.405 93.56C750.957 93.464 750.509 93.336 750.061 93.176C749.624 93.016 749.256 92.792 748.957 92.504C748.669 92.2053 748.525 91.8053 748.525 91.304C748.525 90.6107 748.792 90.0347 749.325 89.576C749.858 89.1067 750.605 88.872 751.565 88.872C752.45 88.872 753.165 89.0853 753.709 89.512C754.264 89.9387 754.589 90.5413 754.685 91.32H753.053C753 90.9787 752.84 90.712 752.573 90.52C752.317 90.328 751.97 90.232 751.533 90.232C751.106 90.232 750.776 90.3227 750.541 90.504C750.306 90.6747 750.189 90.8987 750.189 91.176C750.189 91.4533 750.349 91.672 750.669 91.832C751 91.992 751.432 92.136 751.965 92.264C752.498 92.3813 752.989 92.52 753.437 92.68C753.896 92.8293 754.264 93.0533 754.541 93.352C754.818 93.6507 754.957 94.088 754.957 94.664C754.968 95.3893 754.685 95.992 754.109 96.472C753.544 96.952 752.77 97.192 751.789 97.192ZM758.121 97.096C757.801 97.096 757.534 96.9947 757.321 96.792C757.118 96.5787 757.017 96.328 757.017 96.04C757.017 95.7413 757.118 95.4907 757.321 95.288C757.534 95.0747 757.801 94.968 758.121 94.968C758.441 94.968 758.702 95.0747 758.905 95.288C759.107 95.4907 759.209 95.7413 759.209 96.04C759.209 96.328 759.107 96.5787 758.905 96.792C758.702 96.9947 758.441 97.096 758.121 97.096Z" fill="black"/>
<path d="M59 75.5H872" stroke="#E1E1E1"/>
<path d="M59 106H872" stroke="#E1E1E1"/>
</svg>
